<svg width="42" height="42" viewBox="0 0 42 42" fill="none" xmlns="http://www.w3.org/2000/svg">
<path d="M28.4058 42C30.459 41.9986 32.2718 40.6592 32.8758 38.6965L35.7384 29.4001C37.0088 25.2709 37.6552 20.9752 37.6552 16.6552C37.6552 13.4556 35.0616 10.8621 31.862 10.8621H30.4138C27.2142 10.8621 24.6207 13.4556 24.6207 16.6552V38.2149C24.6207 40.3053 26.3154 42 28.4058 42Z" fill="#D43D3D"/>
<path d="M23.7155 2.14212C23.0257 4.00161 22.7478 5.98839 22.9009 7.96563H23.8965C25.4962 7.96563 26.7931 9.26257 26.7931 10.8622V12.3105H15.931V10.8622C15.931 9.26257 17.228 7.96563 18.8276 7.96563C18.7537 5.27239 19.6415 2.64137 21.3317 0.543213L23.7155 2.14212Z" fill="#5F9548"/>
<path d="M13.5942 42C11.5409 41.9986 9.72812 40.6592 9.1242 38.6965L6.26159 29.4001C4.99117 25.2709 4.34482 20.9752 4.34482 16.6552C4.34482 13.4556 6.93835 10.8621 10.1379 10.8621H11.5862C14.7858 10.8621 17.3793 13.4556 17.3793 16.6552V38.2149C17.3793 40.3053 15.6846 42 13.5942 42Z" fill="#D43D3D"/>
<path d="M13.0345 15.2069V17.8485C13.0345 21.3928 13.3053 24.9318 13.8442 28.4348L15.0923 38.2251C15.4183 40.3449 17.2425 41.9098 19.3873 41.9095H22.0668C24.2116 41.9098 26.0354 40.3449 26.3614 38.2251L28.153 28.4348C28.6929 24.9318 28.9645 21.3928 28.9655 17.8485V15.2069C28.9655 12.8075 27.0201 10.8621 24.6207 10.8621H17.3793C14.9799 10.8621 13.0345 12.8075 13.0345 15.2069Z" fill="#E94F4F"/>
<path d="M14.7985 35.9173L15.0924 38.2266C15.4184 40.3463 17.2425 41.9113 19.3873 41.9109H22.0668C24.2116 41.9113 26.0354 40.3463 26.3614 38.2266L28.153 28.4362C28.6926 24.935 28.9641 21.3982 28.9655 17.856C26.756 25.4817 21.6785 31.9547 14.7985 35.9173Z" fill="#E04646"/>
<path d="M15.2069 17.3794H16.6552V18.9182H15.2069V17.3794Z" fill="#F26666"/>
<path d="M16.076 28.8419L15.6705 26.0061C15.3848 24.1576 15.2299 22.291 15.2069 20.4209L16.6552 20.405C16.6757 22.2101 16.8235 24.0116 17.0975 25.7961L17.5052 28.6389L16.076 28.8419Z" fill="#F26666"/>
<path d="M23.8966 1.44828C23.8966 2.24808 23.2481 2.89655 22.4483 2.89655C21.6485 2.89655 21 2.24808 21 1.44828C21 0.648471 21.6485 0 22.4483 0C23.2481 0 23.8966 0.648471 23.8966 1.44828Z" fill="#77AD50"/>
</svg>
