<svg width="172" height="57" viewBox="0 0 172 57" fill="none" xmlns="http://www.w3.org/2000/svg">
<path d="M32.2515 25.96L32.3795 31.528C31.7822 31.6987 31.3555 31.784 31.0995 31.784L30.3315 31.656L29.6275 27.496C28.0915 27.112 25.4248 26.92 21.6275 26.92C17.8728 26.92 15.3982 27.0267 14.2035 27.24V34.664C14.2035 39.0587 14.3742 43.048 14.7155 46.632C16.6782 46.888 19.3448 47.016 22.7155 47.016C22.8862 47.4427 22.9715 47.8693 22.9715 48.296C22.9715 48.68 22.8862 48.9787 22.7155 49.192L11.6435 49C8.40083 49 5.4355 49.1707 2.7475 49.512C2.53417 49.256 2.4275 48.8933 2.4275 48.424L2.4915 47.912C4.71017 47.4 6.16083 46.6107 6.8435 45.544C7.39817 44.6907 7.76083 43.624 7.9315 42.344C8.4435 38.4613 8.6995 33.5973 8.6995 27.752C8.6995 12.904 8.3155 5.33067 7.5475 5.032C6.73683 4.81866 5.32883 4.712 3.3235 4.712C3.23817 4.41333 3.1955 4.072 3.1955 3.688C3.1955 3.304 3.23817 2.984 3.3235 2.728L13.0515 2.92H21.2435C21.2435 2.92 26.2782 2.77066 36.3475 2.472C37.1155 2.472 37.4995 2.70666 37.4995 3.176C37.4995 3.21866 37.4355 3.73066 37.3075 4.712C36.8382 7.784 36.5182 10.7493 36.3475 13.608C35.8355 13.864 35.3662 13.992 34.9395 13.992C34.5555 13.992 34.2142 13.9067 33.9155 13.736C33.4462 10.1947 33.0408 7.784 32.6995 6.504C28.8168 5.608 25.2328 5.16 21.9475 5.16C18.7048 5.16 16.3795 5.24533 14.9715 5.416C14.4595 7.37866 14.2035 13.6933 14.2035 24.36C15.2275 24.5307 17.0408 24.616 19.6435 24.616C22.2462 24.616 24.3582 24.5307 25.9795 24.36C27.6008 24.1893 28.7528 23.848 29.4355 23.336C30.1608 22.7813 30.6515 21.6933 30.9075 20.072C31.7182 20.072 32.3795 20.2213 32.8915 20.52C32.4648 22.952 32.2515 24.7653 32.2515 25.96Z" fill="#47EC0D"/>
<path d="M32.2515 25.96H31.2515V25.9715L31.2518 25.983L32.2515 25.96ZM32.3795 31.528L32.6542 32.4895L33.397 32.2773L33.3792 31.505L32.3795 31.528ZM31.0995 31.784L30.9351 32.7704L31.0167 32.784H31.0995V31.784ZM30.3315 31.656L29.3455 31.8229L29.4644 32.5253L30.1671 32.6424L30.3315 31.656ZM29.6275 27.496L30.6135 27.3291L30.5044 26.6844L29.87 26.5259L29.6275 27.496ZM14.2035 27.24L14.0277 26.2556L13.2035 26.4028V27.24H14.2035ZM14.7155 46.632L13.72 46.7268L13.7956 47.5205L14.5862 47.6236L14.7155 46.632ZM22.7155 47.016L23.644 46.6446L23.3925 46.016H22.7155V47.016ZM22.7155 49.192L22.6982 50.1918L23.1894 50.2004L23.4964 49.8167L22.7155 49.192ZM11.6435 49L11.6608 48.0002L11.6522 48H11.6435V49ZM2.7475 49.512L1.97928 50.1522L2.33 50.573L2.87347 50.504L2.7475 49.512ZM2.4275 48.424L1.43522 48.3L1.4275 48.3617V48.424H2.4275ZM2.4915 47.912L2.26664 46.9376L1.58588 47.0947L1.49922 47.788L2.4915 47.912ZM6.8435 45.544L6.00504 44.999L6.00123 45.0049L6.8435 45.544ZM7.9315 42.344L8.92273 42.4762L8.92292 42.4747L7.9315 42.344ZM7.5475 5.032L7.90995 4.09999L7.85697 4.07939L7.80199 4.06492L7.5475 5.032ZM3.3235 4.712L2.36198 4.98672L2.5692 5.712H3.3235V4.712ZM3.3235 2.728L3.34323 1.72819L2.60751 1.71367L2.37482 2.41177L3.3235 2.728ZM13.0515 2.92L13.0318 3.9198L13.0416 3.92H13.0515V2.92ZM21.2435 2.92V3.92H21.2583L21.2731 3.91956L21.2435 2.92ZM36.3475 2.472V1.472H36.3327L36.3179 1.47244L36.3475 2.472ZM37.3075 4.712L38.296 4.86302L38.2977 4.8522L38.2991 4.84134L37.3075 4.712ZM36.3475 13.608L36.7947 14.5024L37.3113 14.2441L37.3457 13.6676L36.3475 13.608ZM33.9155 13.736L32.9242 13.8674L32.9893 14.3585L33.4194 14.6042L33.9155 13.736ZM32.6995 6.504L33.6657 6.24633L33.5107 5.66491L32.9244 5.52961L32.6995 6.504ZM14.9715 5.416L14.8512 4.42326L14.1756 4.50514L14.0039 5.16357L14.9715 5.416ZM14.2035 24.36H13.2035V25.2071L14.0391 25.3464L14.2035 24.36ZM25.9795 24.36L26.0842 25.3545L26.0842 25.3545L25.9795 24.36ZM29.4355 23.336L30.0355 24.136L30.043 24.1304L29.4355 23.336ZM30.9075 20.072V19.072H30.053L29.9197 19.916L30.9075 20.072ZM32.8915 20.52L33.8765 20.6928L33.9968 20.007L33.3954 19.6562L32.8915 20.52ZM31.2518 25.983L31.3798 31.551L33.3792 31.505L33.2512 25.937L31.2518 25.983ZM32.1048 30.5665C31.5058 30.7376 31.2005 30.784 31.0995 30.784V32.784C31.5105 32.784 32.0586 32.6597 32.6542 32.4895L32.1048 30.5665ZM31.2639 30.7976L30.4959 30.6696L30.1671 32.6424L30.9351 32.7704L31.2639 30.7976ZM31.3175 31.4891L30.6135 27.3291L28.6415 27.6629L29.3455 31.8229L31.3175 31.4891ZM29.87 26.5259C28.2023 26.1089 25.4247 25.92 21.6275 25.92V27.92C25.425 27.92 27.9807 28.1151 29.385 28.4661L29.87 26.5259ZM21.6275 25.92C17.89 25.92 15.3248 26.0239 14.0277 26.2556L14.3793 28.2244C15.4715 28.0294 17.8557 27.92 21.6275 27.92V25.92ZM13.2035 27.24V34.664H15.2035V27.24H13.2035ZM13.2035 34.664C13.2035 39.0837 13.3751 43.1053 13.72 46.7268L15.711 46.5372C15.3732 42.9907 15.2035 39.0336 15.2035 34.664H13.2035ZM14.5862 47.6236C16.6112 47.8877 19.3271 48.016 22.7155 48.016V46.016C19.3626 46.016 16.7452 45.8883 14.8448 45.6404L14.5862 47.6236ZM21.787 47.3874C21.9141 47.7051 21.9715 48.0061 21.9715 48.296H23.9715C23.9715 47.7326 23.8582 47.1802 23.644 46.6446L21.787 47.3874ZM21.9715 48.296C21.9715 48.5434 21.9157 48.5909 21.9346 48.5673L23.4964 49.8167C23.8566 49.3664 23.9715 48.8166 23.9715 48.296H21.9715ZM22.7328 48.1922L11.6608 48.0002L11.6262 49.9998L22.6982 50.1918L22.7328 48.1922ZM11.6435 48C8.36662 48 5.35848 48.1724 2.62153 48.52L2.87347 50.504C5.51252 50.1689 8.43505 50 11.6435 50V48ZM3.51572 48.8718C3.50307 48.8566 3.4275 48.7537 3.4275 48.424H1.4275C1.4275 49.033 1.56527 49.6554 1.97928 50.1522L3.51572 48.8718ZM3.41978 48.548L3.48378 48.036L1.49922 47.788L1.43522 48.3L3.41978 48.548ZM2.71636 48.8864C5.00463 48.3583 6.78518 47.4902 7.68577 46.0831L6.00123 45.0049C5.53649 45.7311 4.4157 46.4417 2.26664 46.9376L2.71636 48.8864ZM7.68194 46.089C8.3363 45.0823 8.73754 43.8651 8.92273 42.4762L6.94027 42.2118C6.78413 43.3829 6.46004 44.299 6.00506 44.999L7.68194 46.089ZM8.92292 42.4747C9.44268 38.5332 9.6995 33.622 9.6995 27.752H7.6995C7.6995 33.5727 7.44433 38.3894 6.94008 42.2133L8.92292 42.4747ZM9.6995 27.752C9.6995 20.3238 9.60354 14.6981 9.41022 10.8854C9.31377 8.98327 9.19194 7.50689 9.04096 6.4752C8.96622 5.96448 8.87898 5.52383 8.77065 5.18249C8.71714 5.01389 8.64616 4.82931 8.546 4.66126C8.45986 4.51674 8.26783 4.23917 7.90995 4.09999L7.18505 5.964C7.04615 5.90998 6.95545 5.83318 6.90687 5.784C6.85843 5.73495 6.8342 5.69563 6.828 5.68523C6.81784 5.66818 6.83386 5.69143 6.86435 5.78751C6.92402 5.9755 6.99278 6.29151 7.06204 6.7648C7.19906 7.70111 7.31723 9.10206 7.41278 10.9866C7.60346 14.7473 7.6995 20.3322 7.6995 27.752H9.6995ZM7.80199 4.06492C6.85346 3.81531 5.32882 3.712 3.3235 3.712V5.712C5.32885 5.712 6.62021 5.82202 7.29301 5.99907L7.80199 4.06492ZM4.28502 4.43728C4.2304 4.24609 4.1955 4.00005 4.1955 3.688H2.1955C2.1955 4.14394 2.24593 4.58057 2.36198 4.98672L4.28502 4.43728ZM4.1955 3.688C4.1955 3.36989 4.23188 3.16514 4.27218 3.04422L2.37482 2.41177C2.24445 2.80286 2.1955 3.23811 2.1955 3.688H4.1955ZM3.30377 3.7278L13.0318 3.9198L13.0712 1.92019L3.34323 1.72819L3.30377 3.7278ZM13.0515 3.92H21.2435V1.92H13.0515V3.92ZM21.2435 2.92C21.2731 3.91956 21.2732 3.91956 21.2732 3.91956C21.2732 3.91956 21.2733 3.91955 21.2734 3.91955C21.2735 3.91955 21.2736 3.91955 21.2737 3.91954C21.2738 3.91954 21.2739 3.91954 21.2741 3.91953C21.2742 3.91953 21.2744 3.91952 21.2746 3.91952C21.2748 3.91951 21.275 3.9195 21.2752 3.9195C21.2755 3.91949 21.2757 3.91948 21.276 3.91947C21.2762 3.91947 21.2765 3.91946 21.2768 3.91945C21.2771 3.91944 21.2775 3.91943 21.2778 3.91942C21.2782 3.91941 21.2785 3.9194 21.2789 3.91939C21.2793 3.91938 21.2797 3.91936 21.2801 3.91935C21.2805 3.91934 21.281 3.91933 21.2814 3.91931C21.2819 3.9193 21.2824 3.91928 21.2829 3.91927C21.2834 3.91925 21.2839 3.91924 21.2844 3.91922C21.285 3.91921 21.2855 3.91919 21.2861 3.91917C21.2867 3.91916 21.2873 3.91914 21.2879 3.91912C21.2885 3.9191 21.2891 3.91908 21.2898 3.91906C21.2905 3.91905 21.2911 3.91903 21.2918 3.919C21.2925 3.91898 21.2932 3.91896 21.2939 3.91894C21.2947 3.91892 21.2954 3.9189 21.2962 3.91887C21.297 3.91885 21.2978 3.91883 21.2986 3.9188C21.2994 3.91878 21.3002 3.91876 21.301 3.91873C21.3019 3.91871 21.3027 3.91868 21.3036 3.91865C21.3045 3.91863 21.3054 3.9186 21.3063 3.91857C21.3073 3.91855 21.3082 3.91852 21.3092 3.91849C21.3101 3.91846 21.3111 3.91843 21.3121 3.9184C21.3131 3.91837 21.3141 3.91834 21.3152 3.91831C21.3162 3.91828 21.3172 3.91825 21.3183 3.91822C21.3194 3.91819 21.3205 3.91815 21.3216 3.91812C21.3227 3.91809 21.3239 3.91805 21.325 3.91802C21.3262 3.91799 21.3273 3.91795 21.3285 3.91792C21.3297 3.91788 21.3309 3.91785 21.3321 3.91781C21.3334 3.91777 21.3346 3.91774 21.3359 3.9177C21.3372 3.91766 21.3384 3.91762 21.3398 3.91758C21.3411 3.91754 21.3424 3.9175 21.3437 3.91747C21.3451 3.91743 21.3464 3.91738 21.3478 3.91734C21.3492 3.9173 21.3506 3.91726 21.352 3.91722C21.3534 3.91718 21.3549 3.91713 21.3563 3.91709C21.3578 3.91705 21.3593 3.917 21.3608 3.91696C21.3623 3.91691 21.3638 3.91687 21.3653 3.91682C21.3669 3.91678 21.3684 3.91673 21.37 3.91669C21.3716 3.91664 21.3732 3.91659 21.3748 3.91654C21.3764 3.9165 21.378 3.91645 21.3797 3.9164C21.3813 3.91635 21.383 3.9163 21.3847 3.91625C21.3864 3.9162 21.3881 3.91615 21.3898 3.9161C21.3916 3.91605 21.3933 3.91599 21.3951 3.91594C21.3968 3.91589 21.3986 3.91584 21.4004 3.91578C21.4022 3.91573 21.4041 3.91568 21.4059 3.91562C21.4077 3.91557 21.4096 3.91551 21.4115 3.91546C21.4134 3.9154 21.4153 3.91534 21.4172 3.91529C21.4191 3.91523 21.4211 3.91517 21.423 3.91511C21.425 3.91506 21.4269 3.915 21.4289 3.91494C21.4309 3.91488 21.433 3.91482 21.435 3.91476C21.437 3.9147 21.4391 3.91464 21.4412 3.91458C21.4432 3.91451 21.4453 3.91445 21.4474 3.91439C21.4496 3.91433 21.4517 3.91426 21.4538 3.9142C21.456 3.91414 21.4582 3.91407 21.4603 3.91401C21.4625 3.91394 21.4647 3.91388 21.467 3.91381C21.4692 3.91374 21.4714 3.91368 21.4737 3.91361C21.476 3.91354 21.4783 3.91347 21.4806 3.91341C21.4829 3.91334 21.4852 3.91327 21.4875 3.9132C21.4899 3.91313 21.4922 3.91306 21.4946 3.91299C21.497 3.91292 21.4994 3.91285 21.5018 3.91278C21.5043 3.9127 21.5067 3.91263 21.5091 3.91256C21.5116 3.91249 21.5141 3.91241 21.5166 3.91234C21.5191 3.91226 21.5216 3.91219 21.5241 3.91211C21.5267 3.91204 21.5292 3.91196 21.5318 3.91189C21.5344 3.91181 21.537 3.91173 21.5396 3.91166C21.5422 3.91158 21.5448 3.9115 21.5475 3.91142C21.5501 3.91134 21.5528 3.91126 21.5555 3.91118C21.5582 3.9111 21.5609 3.91102 21.5636 3.91094C21.5663 3.91086 21.5691 3.91078 21.5718 3.9107C21.5746 3.91062 21.5774 3.91053 21.5802 3.91045C21.583 3.91037 21.5858 3.91028 21.5887 3.9102C21.5915 3.91012 21.5944 3.91003 21.5972 3.90995C21.6001 3.90986 21.603 3.90977 21.6059 3.90969C21.6089 3.9096 21.6118 3.90951 21.6148 3.90943C21.6177 3.90934 21.6207 3.90925 21.6237 3.90916C21.6267 3.90907 21.6297 3.90898 21.6327 3.90889C21.6358 3.9088 21.6388 3.90871 21.6419 3.90862C21.645 3.90853 21.6481 3.90844 21.6512 3.90835C21.6543 3.90825 21.6574 3.90816 21.6606 3.90807C21.6637 3.90797 21.6669 3.90788 21.6701 3.90779C21.6733 3.90769 21.6765 3.9076 21.6797 3.9075C21.6829 3.9074 21.6862 3.90731 21.6894 3.90721C21.6927 3.90711 21.696 3.90702 21.6993 3.90692C21.7026 3.90682 21.7059 3.90672 21.7093 3.90662C21.7126 3.90652 21.716 3.90642 21.7193 3.90632C21.7227 3.90622 21.7261 3.90612 21.7295 3.90602C21.733 3.90592 21.7364 3.90582 21.7398 3.90572C21.7433 3.90561 21.7468 3.90551 21.7503 3.90541C21.7538 3.9053 21.7573 3.9052 21.7608 3.90509C21.7644 3.90499 21.7679 3.90488 21.7715 3.90478C21.7751 3.90467 21.7786 3.90457 21.7823 3.90446C21.7859 3.90435 21.7895 3.90424 21.7931 3.90413C21.7968 3.90403 21.8005 3.90392 21.8041 3.90381C21.8078 3.9037 21.8115 3.90359 21.8153 3.90348C21.819 3.90337 21.8227 3.90326 21.8265 3.90315C21.8303 3.90303 21.8341 3.90292 21.8379 3.90281C21.8417 3.9027 21.8455 3.90258 21.8493 3.90247C21.8532 3.90235 21.857 3.90224 21.8609 3.90213C21.8648 3.90201 21.8687 3.90189 21.8726 3.90178C21.8765 3.90166 21.8805 3.90155 21.8844 3.90143C21.8884 3.90131 21.8923 3.90119 21.8963 3.90107C21.9003 3.90096 21.9043 3.90084 21.9084 3.90072C21.9124 3.9006 21.9165 3.90048 21.9205 3.90036C21.9246 3.90024 21.9287 3.90011 21.9328 3.89999C21.9369 3.89987 21.941 3.89975 21.9452 3.89962C21.9493 3.8995 21.9535 3.89938 21.9577 3.89925C21.9619 3.89913 21.9661 3.89901 21.9703 3.89888C21.9745 3.89875 21.9788 3.89863 21.9831 3.8985C21.9873 3.89838 21.9916 3.89825 21.9959 3.89812C22.0002 3.89799 22.0045 3.89787 22.0089 3.89774C22.0132 3.89761 22.0176 3.89748 22.0219 3.89735C22.0263 3.89722 22.0307 3.89709 22.0351 3.89696C22.0396 3.89683 22.044 3.89669 22.0484 3.89656C22.0529 3.89643 22.0574 3.8963 22.0619 3.89616C22.0664 3.89603 22.0709 3.8959 22.0754 3.89576C22.0799 3.89563 22.0845 3.89549 22.0891 3.89536C22.0936 3.89522 22.0982 3.89509 22.1028 3.89495C22.1074 3.89481 22.1121 3.89468 22.1167 3.89454C22.1214 3.8944 22.126 3.89426 22.1307 3.89412C22.1354 3.89398 22.1401 3.89384 22.1448 3.8937C22.1496 3.89356 22.1543 3.89342 22.1591 3.89328C22.1638 3.89314 22.1686 3.893 22.1734 3.89286C22.1782 3.89271 22.183 3.89257 22.1879 3.89243C22.1927 3.89228 22.1976 3.89214 22.2025 3.89199C22.2073 3.89185 22.2122 3.8917 22.2171 3.89156C22.2221 3.89141 22.227 3.89127 22.232 3.89112C22.2369 3.89097 22.2419 3.89082 22.2469 3.89068C22.2519 3.89053 22.2569 3.89038 22.2619 3.89023C22.267 3.89008 22.272 3.88993 22.2771 3.88978C22.2821 3.88963 22.2872 3.88948 22.2923 3.88933C22.2974 3.88918 22.3026 3.88902 22.3077 3.88887C22.3129 3.88872 22.318 3.88857 22.3232 3.88841C22.3284 3.88826 22.3336 3.8881 22.3388 3.88795C22.3441 3.88779 22.3493 3.88764 22.3546 3.88748C22.3598 3.88733 22.3651 3.88717 22.3704 3.88701C22.3757 3.88686 22.381 3.8867 22.3864 3.88654C22.3917 3.88638 22.3971 3.88622 22.4024 3.88606C22.4078 3.8859 22.4132 3.88574 22.4186 3.88558C22.4241 3.88542 22.4295 3.88526 22.4349 3.8851C22.4404 3.88494 22.4459 3.88477 22.4514 3.88461C22.4569 3.88445 22.4624 3.88428 22.4679 3.88412C22.4734 3.88396 22.479 3.88379 22.4846 3.88363C22.4901 3.88346 22.4957 3.8833 22.5013 3.88313C22.5069 3.88296 22.5126 3.8828 22.5182 3.88263C22.5238 3.88246 22.5295 3.88229 22.5352 3.88212C22.5409 3.88196 22.5466 3.88179 22.5523 3.88162C22.558 3.88145 22.5638 3.88128 22.5695 3.88111C22.5753 3.88094 22.5811 3.88076 22.5869 3.88059C22.5927 3.88042 22.5985 3.88025 22.6043 3.88007C22.6102 3.8799 22.616 3.87973 22.6219 3.87955C22.6278 3.87938 22.6337 3.8792 22.6396 3.87903C22.6455 3.87885 22.6514 3.87868 22.6574 3.8785C22.6634 3.87832 22.6693 3.87815 22.6753 3.87797C22.6813 3.87779 22.6873 3.87761 22.6934 3.87743C22.6994 3.87725 22.7054 3.87708 22.7115 3.8769C22.7176 3.87672 22.7237 3.87653 22.7298 3.87635C22.7359 3.87617 22.742 3.87599 22.7481 3.87581C22.7543 3.87563 22.7605 3.87544 22.7666 3.87526C22.7728 3.87508 22.779 3.87489 22.7853 3.87471C22.7915 3.87452 22.7977 3.87434 22.804 3.87415C22.8102 3.87397 22.8165 3.87378 22.8228 3.87359C22.8291 3.87341 22.8354 3.87322 22.8418 3.87303C22.8481 3.87284 22.8545 3.87265 22.8608 3.87247C22.8672 3.87228 22.8736 3.87209 22.88 3.8719C22.8865 3.87171 22.8929 3.87152 22.8993 3.87132C22.9058 3.87113 22.9123 3.87094 22.9188 3.87075C22.9252 3.87056 22.9318 3.87036 22.9383 3.87017C22.9448 3.86998 22.9514 3.86978 22.9579 3.86959C22.9645 3.86939 22.9711 3.8692 22.9777 3.869C22.9843 3.8688 22.9909 3.86861 22.9976 3.86841C23.0042 3.86821 23.0109 3.86802 23.0176 3.86782C23.0243 3.86762 23.031 3.86742 23.0377 3.86722C23.0444 3.86702 23.0511 3.86682 23.0579 3.86662C23.0647 3.86642 23.0714 3.86622 23.0782 3.86602C23.085 3.86582 23.0919 3.86561 23.0987 3.86541C23.1055 3.86521 23.1124 3.865 23.1193 3.8648C23.1261 3.8646 23.133 3.86439 23.1399 3.86419C23.1469 3.86398 23.1538 3.86378 23.1607 3.86357C23.1677 3.86336 23.1747 3.86316 23.1817 3.86295C23.1887 3.86274 23.1957 3.86253 23.2027 3.86233C23.2097 3.86212 23.2168 3.86191 23.2238 3.8617C23.2309 3.86149 23.238 3.86128 23.2451 3.86107C23.2522 3.86086 23.2593 3.86065 23.2665 3.86043C23.2736 3.86022 23.2808 3.86001 23.288 3.8598C23.2951 3.85958 23.3024 3.85937 23.3096 3.85916C23.3168 3.85894 23.324 3.85873 23.3313 3.85851C23.3386 3.8583 23.3458 3.85808 23.3531 3.85786C23.3604 3.85765 23.3677 3.85743 23.3751 3.85721C23.3824 3.857 23.3898 3.85678 23.3971 3.85656C23.4045 3.85634 23.4119 3.85612 23.4193 3.8559C23.4267 3.85568 23.4342 3.85546 23.4416 3.85524C23.4491 3.85502 23.4566 3.8548 23.464 3.85457C23.4715 3.85435 23.479 3.85413 23.4866 3.85391C23.4941 3.85368 23.5016 3.85346 23.5092 3.85323C23.5168 3.85301 23.5244 3.85278 23.532 3.85256C23.5396 3.85233 23.5472 3.85211 23.5548 3.85188C23.5625 3.85165 23.5702 3.85143 23.5778 3.8512C23.5855 3.85097 23.5932 3.85074 23.6009 3.85051C23.6087 3.85028 23.6164 3.85006 23.6242 3.84982C23.6319 3.84959 23.6397 3.84936 23.6475 3.84913C23.6553 3.8489 23.6631 3.84867 23.6709 3.84844C23.6788 3.8482 23.6866 3.84797 23.6945 3.84774C23.7024 3.8475 23.7103 3.84727 23.7182 3.84704C23.7261 3.8468 23.734 3.84657 23.742 3.84633C23.7499 3.84609 23.7579 3.84586 23.7659 3.84562C23.7739 3.84538 23.7819 3.84515 23.7899 3.84491C23.798 3.84467 23.806 3.84443 23.8141 3.84419C23.8221 3.84395 23.8302 3.84371 23.8383 3.84347C23.8464 3.84323 23.8546 3.84299 23.8627 3.84275C23.8708 3.84251 23.879 3.84227 23.8872 3.84202C23.8954 3.84178 23.9036 3.84154 23.9118 3.84129C23.92 3.84105 23.9282 3.84081 23.9365 3.84056C23.9448 3.84032 23.953 3.84007 23.9613 3.83982C23.9696 3.83958 23.9779 3.83933 23.9863 3.83908C23.9946 3.83884 24.003 3.83859 24.0113 3.83834C24.0197 3.83809 24.0281 3.83784 24.0365 3.83759C24.0449 3.83734 24.0534 3.83709 24.0618 3.83684C24.0703 3.83659 24.0787 3.83634 24.0872 3.83609C24.0957 3.83584 24.1042 3.83559 24.1128 3.83533C24.1213 3.83508 24.1298 3.83483 24.1384 3.83457C24.147 3.83432 24.1555 3.83406 24.1641 3.83381C24.1728 3.83355 24.1814 3.8333 24.19 3.83304C24.1987 3.83278 24.2073 3.83253 24.216 3.83227C24.2247 3.83201 24.2334 3.83175 24.2421 3.8315C24.2508 3.83124 24.2596 3.83098 24.2683 3.83072C24.2771 3.83046 24.2859 3.8302 24.2947 3.82994C24.3034 3.82968 24.3123 3.82941 24.3211 3.82915C24.3299 3.82889 24.3388 3.82863 24.3477 3.82837C24.3565 3.8281 24.3654 3.82784 24.3743 3.82757C24.3832 3.82731 24.3922 3.82704 24.4011 3.82678C24.4101 3.82651 24.419 3.82625 24.428 3.82598C24.437 3.82571 24.446 3.82545 24.4551 3.82518C24.4641 3.82491 24.4731 3.82464 24.4822 3.82437C24.4913 3.82411 24.5003 3.82384 24.5094 3.82357C24.5186 3.8233 24.5277 3.82303 24.5368 3.82275C24.546 3.82248 24.5551 3.82221 24.5643 3.82194C24.5735 3.82167 24.5827 3.82139 24.5919 3.82112C24.6011 3.82085 24.6104 3.82057 24.6196 3.8203C24.6289 3.82002 24.6381 3.81975 24.6474 3.81947C24.6567 3.8192 24.6661 3.81892 24.6754 3.81864C24.6847 3.81837 24.6941 3.81809 24.7034 3.81781C24.7128 3.81753 24.7222 3.81726 24.7316 3.81698C24.741 3.8167 24.7505 3.81642 24.7599 3.81614C24.7694 3.81586 24.7788 3.81558 24.7883 3.81529C24.7978 3.81501 24.8073 3.81473 24.8168 3.81445C24.8264 3.81417 24.8359 3.81388 24.8455 3.8136C24.855 3.81332 24.8646 3.81303 24.8742 3.81275C24.8838 3.81246 24.8934 3.81218 24.9031 3.81189C24.9127 3.8116 24.9224 3.81132 24.9321 3.81103C24.9418 3.81074 24.9514 3.81046 24.9612 3.81017C24.9709 3.80988 24.9806 3.80959 24.9904 3.8093C25.0001 3.80901 25.0099 3.80872 25.0197 3.80843C25.0295 3.80814 25.0393 3.80785 25.0491 3.80756C25.059 3.80727 25.0688 3.80697 25.0787 3.80668C25.0886 3.80639 25.0985 3.8061 25.1084 3.8058C25.1183 3.80551 25.1282 3.80521 25.1382 3.80492C25.1481 3.80462 25.1581 3.80433 25.1681 3.80403C25.1781 3.80373 25.1881 3.80344 25.1981 3.80314C25.2081 3.80284 25.2182 3.80255 25.2282 3.80225C25.2383 3.80195 25.2484 3.80165 25.2585 3.80135C25.2686 3.80105 25.2787 3.80075 25.2888 3.80045C25.299 3.80015 25.3091 3.79985 25.3193 3.79954C25.3295 3.79924 25.3397 3.79894 25.3499 3.79864C25.3601 3.79833 25.3704 3.79803 25.3806 3.79773C25.3909 3.79742 25.4012 3.79712 25.4114 3.79681C25.4217 3.79651 25.4321 3.7962 25.4424 3.79589C25.4527 3.79559 25.4631 3.79528 25.4734 3.79497C25.4838 3.79467 25.4942 3.79436 25.5046 3.79405C25.515 3.79374 25.5255 3.79343 25.5359 3.79312C25.5463 3.79281 25.5568 3.7925 25.5673 3.79219C25.5778 3.79188 25.5883 3.79157 25.5988 3.79125C25.6093 3.79094 25.6199 3.79063 25.6304 3.79032C25.641 3.79 25.6516 3.78969 25.6622 3.78937C25.6728 3.78906 25.6834 3.78874 25.6941 3.78843C25.7047 3.78811 25.7154 3.7878 25.726 3.78748C25.7367 3.78716 25.7474 3.78685 25.7581 3.78653C25.7688 3.78621 25.7796 3.78589 25.7903 3.78557C25.8011 3.78525 25.8119 3.78494 25.8227 3.78461C25.8335 3.78429 25.8443 3.78397 25.8551 3.78365C25.8659 3.78333 25.8768 3.78301 25.8877 3.78269C25.8985 3.78236 25.9094 3.78204 25.9203 3.78172C25.9312 3.78139 25.9422 3.78107 25.9531 3.78075C25.9641 3.78042 25.975 3.7801 25.986 3.77977C25.997 3.77944 26.008 3.77912 26.019 3.77879C26.03 3.77846 26.0411 3.77814 26.0521 3.77781C26.0632 3.77748 26.0743 3.77715 26.0854 3.77682C26.0965 3.77649 26.1076 3.77616 26.1188 3.77583C26.1299 3.7755 26.1411 3.77517 26.1522 3.77484C26.1634 3.77451 26.1746 3.77418 26.1858 3.77384C26.197 3.77351 26.2083 3.77318 26.2195 3.77284C26.2308 3.77251 26.2421 3.77218 26.2533 3.77184C26.2646 3.77151 26.276 3.77117 26.2873 3.77083C26.2986 3.7705 26.31 3.77016 26.3213 3.76982C26.3327 3.76949 26.3441 3.76915 26.3555 3.76881C26.3669 3.76847 26.3783 3.76813 26.3898 3.76779C26.4012 3.76745 26.4127 3.76711 26.4242 3.76677C26.4357 3.76643 26.4472 3.76609 26.4587 3.76575C26.4702 3.76541 26.4818 3.76507 26.4933 3.76472C26.5049 3.76438 26.5165 3.76404 26.5281 3.76369C26.5397 3.76335 26.5513 3.763 26.5629 3.76266C26.5746 3.76231 26.5862 3.76197 26.5979 3.76162C26.6096 3.76127 26.6213 3.76093 26.633 3.76058C26.6447 3.76023 26.6564 3.75988 26.6682 3.75954C26.6799 3.75919 26.6917 3.75884 26.7035 3.75849C26.7153 3.75814 26.7271 3.75779 26.7389 3.75744C26.7508 3.75709 26.7626 3.75673 26.7745 3.75638C26.7864 3.75603 26.7983 3.75568 26.8102 3.75532C26.8221 3.75497 26.834 3.75462 26.8459 3.75426C26.8579 3.75391 26.8699 3.75355 26.8818 3.7532C26.8938 3.75284 26.9058 3.75249 26.9178 3.75213C26.9299 3.75177 26.9419 3.75142 26.954 3.75106C26.966 3.7507 26.9781 3.75034 26.9902 3.74998C27.0023 3.74962 27.0144 3.74927 27.0266 3.74891C27.0387 3.74855 27.0509 3.74818 27.063 3.74782C27.0752 3.74746 27.0874 3.7471 27.0996 3.74674C27.1118 3.74638 27.1241 3.74601 27.1363 3.74565C27.1486 3.74529 27.1609 3.74492 27.1731 3.74456C27.1854 3.74419 27.1978 3.74383 27.2101 3.74346C27.2224 3.7431 27.2348 3.74273 27.2471 3.74236C27.2595 3.742 27.2719 3.74163 27.2843 3.74126C27.2967 3.74089 27.3091 3.74052 27.3216 3.74016C27.334 3.73979 27.3465 3.73942 27.359 3.73905C27.3714 3.73868 27.384 3.73831 27.3965 3.73793C27.409 3.73756 27.4215 3.73719 27.4341 3.73682C27.4467 3.73645 27.4592 3.73607 27.4718 3.7357C27.4844 3.73532 27.4971 3.73495 27.5097 3.73458C27.5223 3.7342 27.535 3.73383 27.5477 3.73345C27.5603 3.73307 27.573 3.7327 27.5857 3.73232C27.5985 3.73194 27.6112 3.73156 27.6239 3.73119C27.6367 3.73081 27.6495 3.73043 27.6623 3.73005C27.6751 3.72967 27.6879 3.72929 27.7007 3.72891C27.7135 3.72853 27.7264 3.72815 27.7392 3.72777C27.7521 3.72739 27.765 3.727 27.7779 3.72662C27.7908 3.72624 27.8037 3.72585 27.8167 3.72547C27.8296 3.72509 27.8426 3.7247 27.8556 3.72432C27.8686 3.72393 27.8816 3.72355 27.8946 3.72316C27.9076 3.72277 27.9206 3.72239 27.9337 3.722C27.9468 3.72161 27.9598 3.72122 27.9729 3.72084C27.986 3.72045 27.9991 3.72006 28.0123 3.71967C28.0254 3.71928 28.0386 3.71889 28.0518 3.7185C28.0649 3.71811 28.0781 3.71772 28.0913 3.71732C28.1045 3.71693 28.1178 3.71654 28.131 3.71615C28.1443 3.71575 28.1576 3.71536 28.1708 3.71496C28.1841 3.71457 28.1974 3.71418 28.2108 3.71378C28.2241 3.71339 28.2375 3.71299 28.2508 3.71259C28.2642 3.7122 28.2776 3.7118 28.291 3.7114C28.3044 3.711 28.3178 3.71061 28.3313 3.71021C28.3447 3.70981 28.3582 3.70941 28.3716 3.70901C28.3851 3.70861 28.3986 3.70821 28.4121 3.70781C28.4257 3.70741 28.4392 3.70701 28.4528 3.7066C28.4663 3.7062 28.4799 3.7058 28.4935 3.70539C28.5071 3.70499 28.5207 3.70459 28.5344 3.70418C28.548 3.70378 28.5616 3.70337 28.5753 3.70297C28.589 3.70256 28.6027 3.70216 28.6164 3.70175C28.6301 3.70134 28.6438 3.70094 28.6576 3.70053C28.6713 3.70012 28.6851 3.69971 28.6989 3.6993C28.7127 3.69889 28.7265 3.69848 28.7403 3.69807C28.7542 3.69766 28.768 3.69725 28.7819 3.69684C28.7957 3.69643 28.8096 3.69602 28.8235 3.69561C28.8374 3.69519 28.8514 3.69478 28.8653 3.69437C28.8793 3.69395 28.8932 3.69354 28.9072 3.69312C28.9212 3.69271 28.9352 3.69229 28.9492 3.69188C28.9632 3.69146 28.9773 3.69105 28.9913 3.69063C29.0054 3.69021 29.0195 3.68979 29.0336 3.68938C29.0476 3.68896 29.0618 3.68854 29.0759 3.68812C29.09 3.6877 29.1042 3.68728 29.1184 3.68686C29.1325 3.68644 29.1467 3.68602 29.1609 3.6856C29.1752 3.68518 29.1894 3.68475 29.2036 3.68433C29.2179 3.68391 29.2322 3.68349 29.2464 3.68306C29.2607 3.68264 29.275 3.68221 29.2894 3.68179C29.3037 3.68136 29.318 3.68094 29.3324 3.68051C29.3468 3.68009 29.3612 3.67966 29.3756 3.67923C29.39 3.6788 29.4044 3.67838 29.4188 3.67795C29.4333 3.67752 29.4477 3.67709 29.4622 3.67666C29.4767 3.67623 29.4912 3.6758 29.5057 3.67537C29.5202 3.67494 29.5348 3.67451 29.5493 3.67408C29.5639 3.67365 29.5785 3.67321 29.5931 3.67278C29.6077 3.67235 29.6223 3.67191 29.6369 3.67148C29.6516 3.67105 29.6662 3.67061 29.6809 3.67018C29.6956 3.66974 29.7102 3.6693 29.725 3.66887C29.7397 3.66843 29.7544 3.668 29.7691 3.66756C29.7839 3.66712 29.7987 3.66668 29.8135 3.66624C29.8282 3.6658 29.8431 3.66537 29.8579 3.66493C29.8727 3.66449 29.8876 3.66405 29.9024 3.6636C29.9173 3.66316 29.9322 3.66272 29.9471 3.66228C29.962 3.66184 29.9769 3.6614 29.9918 3.66095C30.0068 3.66051 30.0217 3.66007 30.0367 3.65962C30.0517 3.65918 30.0667 3.65873 30.0817 3.65829C30.0967 3.65784 30.1118 3.65739 30.1268 3.65695C30.1419 3.6565 30.157 3.65605 30.1721 3.65561C30.1872 3.65516 30.2023 3.65471 30.2174 3.65426C30.2325 3.65381 30.2477 3.65336 30.2629 3.65291C30.278 3.65246 30.2932 3.65201 30.3084 3.65156C30.3237 3.65111 30.3389 3.65066 30.3541 3.65021C30.3694 3.64975 30.3847 3.6493 30.3999 3.64885C30.4152 3.64839 30.4305 3.64794 30.4459 3.64749C30.4612 3.64703 30.4765 3.64658 30.4919 3.64612C30.5073 3.64566 30.5226 3.64521 30.5381 3.64475C30.5535 3.64429 30.5689 3.64384 30.5843 3.64338C30.5998 3.64292 30.6152 3.64246 30.6307 3.642C30.6462 3.64154 30.6617 3.64108 30.6772 3.64062C30.6927 3.64016 30.7083 3.6397 30.7238 3.63924C30.7394 3.63878 30.7549 3.63832 30.7705 3.63786C30.7861 3.63739 30.8017 3.63693 30.8174 3.63647C30.833 3.636 30.8487 3.63554 30.8643 3.63507C30.88 3.63461 30.8957 3.63414 30.9114 3.63368C30.9271 3.63321 30.9428 3.63274 30.9586 3.63228C30.9743 3.63181 30.9901 3.63134 31.0059 3.63087C31.0217 3.63041 31.0375 3.62994 31.0533 3.62947C31.0691 3.629 31.085 3.62853 31.1009 3.62806C31.1167 3.62759 31.1326 3.62712 31.1485 3.62664C31.1644 3.62617 31.1803 3.6257 31.1963 3.62523C31.2122 3.62475 31.2282 3.62428 31.2441 3.62381C31.2601 3.62333 31.2761 3.62286 31.2921 3.62238C31.3082 3.62191 31.3242 3.62143 31.3403 3.62096C31.3563 3.62048 31.3724 3.62 31.3885 3.61953C31.4046 3.61905 31.4207 3.61857 31.4368 3.61809C31.453 3.61761 31.4691 3.61713 31.4853 3.61666C31.5014 3.61618 31.5176 3.6157 31.5338 3.61521C31.5501 3.61473 31.5663 3.61425 31.5825 3.61377C31.5988 3.61329 31.615 3.61281 31.6313 3.61232C31.6476 3.61184 31.6639 3.61136 31.6803 3.61087C31.6966 3.61039 31.7129 3.6099 31.7293 3.60942C31.7456 3.60893 31.762 3.60845 31.7784 3.60796C31.7948 3.60747 31.8113 3.60699 31.8277 3.6065C31.8441 3.60601 31.8606 3.60552 31.8771 3.60503C31.8936 3.60455 31.91 3.60406 31.9266 3.60357C31.9431 3.60308 31.9596 3.60259 31.9762 3.60209C31.9927 3.6016 32.0093 3.60111 32.0259 3.60062C32.0425 3.60013 32.0591 3.59963 32.0757 3.59914C32.0924 3.59865 32.109 3.59815 32.1257 3.59766C32.1424 3.59717 32.1591 3.59667 32.1758 3.59617C32.1925 3.59568 32.2092 3.59518 32.2259 3.59469C32.2427 3.59419 32.2595 3.59369 32.2762 3.59319C32.293 3.5927 32.3098 3.5922 32.3267 3.5917C32.3435 3.5912 32.3603 3.5907 32.3772 3.5902C32.3941 3.5897 32.4109 3.5892 32.4278 3.5887C32.4447 3.5882 32.4617 3.58769 32.4786 3.58719C32.4955 3.58669 32.5125 3.58619 32.5295 3.58568C32.5465 3.58518 32.5634 3.58468 32.5805 3.58417C32.5975 3.58367 32.6145 3.58316 32.6316 3.58265C32.6486 3.58215 32.6657 3.58164 32.6828 3.58114C32.6999 3.58063 32.717 3.58012 32.7341 3.57961C32.7513 3.5791 32.7684 3.5786 32.7856 3.57809C32.8028 3.57758 32.8199 3.57707 32.8371 3.57656C32.8544 3.57605 32.8716 3.57554 32.8888 3.57502C32.9061 3.57451 32.9233 3.574 32.9406 3.57349C32.9579 3.57298 32.9752 3.57246 32.9925 3.57195C33.0099 3.57143 33.0272 3.57092 33.0446 3.5704C33.0619 3.56989 33.0793 3.56937 33.0967 3.56886C33.1141 3.56834 33.1315 3.56783 33.149 3.56731C33.1664 3.56679 33.1839 3.56627 33.2013 3.56575C33.2188 3.56524 33.2363 3.56472 33.2538 3.5642C33.2714 3.56368 33.2889 3.56316 33.3064 3.56264C33.324 3.56212 33.3416 3.5616 33.3592 3.56107C33.3768 3.56055 33.3944 3.56003 33.412 3.55951C33.4296 3.55898 33.4473 3.55846 33.4649 3.55794C33.4826 3.55741 33.5003 3.55689 33.518 3.55636C33.5357 3.55584 33.5534 3.55531 33.5712 3.55478C33.5889 3.55426 33.6067 3.55373 33.6245 3.5532C33.6423 3.55268 33.6601 3.55215 33.6779 3.55162C33.6957 3.55109 33.7136 3.55056 33.7314 3.55003C33.7493 3.5495 33.7672 3.54897 33.7851 3.54844C33.803 3.54791 33.8209 3.54738 33.8388 3.54685C33.8568 3.54631 33.8747 3.54578 33.8927 3.54525C33.9107 3.54472 33.9287 3.54418 33.9467 3.54365C33.9647 3.54311 33.9827 3.54258 34.0008 3.54204C34.0188 3.54151 34.0369 3.54097 34.055 3.54043C34.0731 3.5399 34.0912 3.53936 34.1093 3.53882C34.1275 3.53828 34.1456 3.53775 34.1638 3.53721C34.182 3.53667 34.2001 3.53613 34.2183 3.53559C34.2366 3.53505 34.2548 3.53451 34.273 3.53397C34.2913 3.53343 34.3095 3.53288 34.3278 3.53234C34.3461 3.5318 34.3644 3.53126 34.3827 3.53071C34.4011 3.53017 34.4194 3.52963 34.4378 3.52908C34.4561 3.52854 34.4745 3.52799 34.4929 3.52745C34.5113 3.5269 34.5297 3.52635 34.5481 3.52581C34.5666 3.52526 34.585 3.52471 34.6035 3.52416C34.622 3.52362 34.6405 3.52307 34.659 3.52252C34.6775 3.52197 34.6961 3.52142 34.7146 3.52087C34.7332 3.52032 34.7517 3.51977 34.7703 3.51922C34.7889 3.51867 34.8075 3.51811 34.8262 3.51756C34.8448 3.51701 34.8634 3.51646 34.8821 3.5159C34.9008 3.51535 34.9195 3.51479 34.9382 3.51424C34.9569 3.51368 34.9756 3.51313 34.9943 3.51257C35.0131 3.51202 35.0318 3.51146 35.0506 3.5109C35.0694 3.51035 35.0882 3.50979 35.107 3.50923C35.1259 3.50867 35.1447 3.50811 35.1636 3.50755C35.1824 3.50699 35.2013 3.50643 35.2202 3.50587C35.2391 3.50531 35.258 3.50475 35.2769 3.50419C35.2959 3.50363 35.3148 3.50307 35.3338 3.5025C35.3528 3.50194 35.3718 3.50138 35.3908 3.50081C35.4098 3.50025 35.4288 3.49968 35.4479 3.49912C35.467 3.49855 35.486 3.49799 35.5051 3.49742C35.5242 3.49686 35.5433 3.49629 35.5624 3.49572C35.5816 3.49515 35.6007 3.49459 35.6199 3.49402C35.6391 3.49345 35.6582 3.49288 35.6774 3.49231C35.6967 3.49174 35.7159 3.49117 35.7351 3.4906C35.7544 3.49003 35.7736 3.48946 35.7929 3.48889C35.8122 3.48831 35.8315 3.48774 35.8508 3.48717C35.8701 3.4866 35.8895 3.48602 35.9088 3.48545C35.9282 3.48487 35.9476 3.4843 35.967 3.48372C35.9864 3.48315 36.0058 3.48257 36.0252 3.482C36.0447 3.48142 36.0641 3.48084 36.0836 3.48026C36.1031 3.47969 36.1226 3.47911 36.1421 3.47853C36.1616 3.47795 36.1811 3.47737 36.2007 3.47679C36.2202 3.47621 36.2398 3.47563 36.2594 3.47505C36.279 3.47447 36.2986 3.47389 36.3182 3.47331C36.3378 3.47272 36.3575 3.47214 36.3771 3.47156L36.3179 1.47244C36.2982 1.47302 36.2785 1.4736 36.2589 1.47418C36.2393 1.47477 36.2197 1.47535 36.2001 1.47593C36.1805 1.47651 36.1609 1.47709 36.1414 1.47767C36.1218 1.47825 36.1023 1.47883 36.0828 1.47941C36.0633 1.47999 36.0438 1.48057 36.0243 1.48114C36.0048 1.48172 35.9854 1.4823 35.9659 1.48287C35.9465 1.48345 35.9271 1.48403 35.9077 1.4846C35.8883 1.48518 35.8689 1.48575 35.8495 1.48633C35.8302 1.4869 35.8108 1.48747 35.7915 1.48805C35.7722 1.48862 35.7529 1.48919 35.7336 1.48977C35.7143 1.49034 35.6951 1.49091 35.6758 1.49148C35.6566 1.49205 35.6374 1.49262 35.6181 1.49319C35.5989 1.49376 35.5798 1.49433 35.5606 1.4949C35.5414 1.49547 35.5223 1.49603 35.5031 1.4966C35.484 1.49717 35.4649 1.49774 35.4458 1.4983C35.4267 1.49887 35.4077 1.49943 35.3886 1.5C35.3695 1.50056 35.3505 1.50113 35.3315 1.50169C35.3125 1.50226 35.2935 1.50282 35.2745 1.50338C35.2555 1.50395 35.2366 1.50451 35.2177 1.50507C35.1987 1.50563 35.1798 1.50619 35.1609 1.50675C35.142 1.50731 35.1231 1.50787 35.1043 1.50843C35.0854 1.50899 35.0666 1.50955 35.0477 1.51011C35.0289 1.51067 35.0101 1.51122 34.9913 1.51178C34.9725 1.51234 34.9538 1.5129 34.935 1.51345C34.9163 1.51401 34.8976 1.51456 34.8789 1.51512C34.8602 1.51567 34.8415 1.51623 34.8228 1.51678C34.8041 1.51733 34.7855 1.51789 34.7669 1.51844C34.7482 1.51899 34.7296 1.51954 34.711 1.5201C34.6924 1.52065 34.6739 1.5212 34.6553 1.52175C34.6368 1.5223 34.6182 1.52285 34.5997 1.5234C34.5812 1.52395 34.5627 1.5245 34.5442 1.52504C34.5257 1.52559 34.5073 1.52614 34.4889 1.52669C34.4704 1.52723 34.452 1.52778 34.4336 1.52833C34.4152 1.52887 34.3968 1.52942 34.3785 1.52996C34.3601 1.53051 34.3418 1.53105 34.3234 1.53159C34.3051 1.53214 34.2868 1.53268 34.2685 1.53322C34.2502 1.53376 34.232 1.53431 34.2137 1.53485C34.1955 1.53539 34.1773 1.53593 34.1591 1.53647C34.1408 1.53701 34.1227 1.53755 34.1045 1.53809C34.0863 1.53863 34.0682 1.53916 34.05 1.5397C34.0319 1.54024 34.0138 1.54078 33.9957 1.54131C33.9776 1.54185 33.9595 1.54239 33.9415 1.54292C33.9234 1.54346 33.9054 1.54399 33.8874 1.54453C33.8694 1.54506 33.8514 1.54559 33.8334 1.54613C33.8154 1.54666 33.7975 1.54719 33.7795 1.54773C33.7616 1.54826 33.7437 1.54879 33.7258 1.54932C33.7079 1.54985 33.69 1.55038 33.6721 1.55091C33.6543 1.55144 33.6364 1.55197 33.6186 1.5525C33.6008 1.55303 33.583 1.55356 33.5652 1.55408C33.5474 1.55461 33.5296 1.55514 33.5119 1.55566C33.4941 1.55619 33.4764 1.55672 33.4587 1.55724C33.441 1.55777 33.4233 1.55829 33.4056 1.55882C33.388 1.55934 33.3703 1.55986 33.3527 1.56039C33.3351 1.56091 33.3175 1.56143 33.2999 1.56195C33.2823 1.56247 33.2647 1.563 33.2471 1.56352C33.2296 1.56404 33.2121 1.56456 33.1945 1.56508C33.177 1.5656 33.1595 1.56612 33.1421 1.56663C33.1246 1.56715 33.1071 1.56767 33.0897 1.56819C33.0722 1.5687 33.0548 1.56922 33.0374 1.56974C33.02 1.57025 33.0026 1.57077 32.9853 1.57128C32.9679 1.5718 32.9506 1.57231 32.9332 1.57283C32.9159 1.57334 32.8986 1.57385 32.8813 1.57437C32.864 1.57488 32.8468 1.57539 32.8295 1.5759C32.8123 1.57641 32.7951 1.57693 32.7779 1.57744C32.7606 1.57795 32.7435 1.57846 32.7263 1.57897C32.7091 1.57948 32.692 1.57998 32.6748 1.58049C32.6577 1.581 32.6406 1.58151 32.6235 1.58201C32.6064 1.58252 32.5893 1.58303 32.5723 1.58353C32.5552 1.58404 32.5382 1.58455 32.5212 1.58505C32.5042 1.58555 32.4872 1.58606 32.4702 1.58656C32.4532 1.58707 32.4362 1.58757 32.4193 1.58807C32.4024 1.58857 32.3854 1.58908 32.3685 1.58958C32.3516 1.59008 32.3348 1.59058 32.3179 1.59108C32.301 1.59158 32.2842 1.59208 32.2674 1.59258C32.2505 1.59308 32.2337 1.59358 32.2169 1.59407C32.2002 1.59457 32.1834 1.59507 32.1666 1.59557C32.1499 1.59606 32.1332 1.59656 32.1165 1.59705C32.0998 1.59755 32.0831 1.59804 32.0664 1.59854C32.0497 1.59903 32.0331 1.59953 32.0164 1.60002C31.9998 1.60051 31.9832 1.60101 31.9666 1.6015C31.95 1.60199 31.9334 1.60248 31.9169 1.60297C31.9003 1.60346 31.8838 1.60396 31.8673 1.60445C31.8508 1.60494 31.8343 1.60542 31.8178 1.60591C31.8013 1.6064 31.7848 1.60689 31.7684 1.60738C31.752 1.60787 31.7355 1.60835 31.7191 1.60884C31.7027 1.60933 31.6864 1.60981 31.67 1.6103C31.6536 1.61078 31.6373 1.61127 31.621 1.61175C31.6046 1.61224 31.5883 1.61272 31.572 1.6132C31.5558 1.61369 31.5395 1.61417 31.5232 1.61465C31.507 1.61513 31.4908 1.61561 31.4746 1.61609C31.4583 1.61657 31.4422 1.61705 31.426 1.61753C31.4098 1.61801 31.3937 1.61849 31.3775 1.61897C31.3614 1.61945 31.3453 1.61993 31.3292 1.62041C31.3131 1.62088 31.297 1.62136 31.281 1.62184C31.2649 1.62231 31.2489 1.62279 31.2328 1.62326C31.2168 1.62374 31.2008 1.62421 31.1849 1.62469C31.1689 1.62516 31.1529 1.62563 31.137 1.62611C31.121 1.62658 31.1051 1.62705 31.0892 1.62752C31.0733 1.628 31.0574 1.62847 31.0416 1.62894C31.0257 1.62941 31.0098 1.62988 30.994 1.63035C30.9782 1.63082 30.9624 1.63128 30.9466 1.63175C30.9308 1.63222 30.9151 1.63269 30.8993 1.63316C30.8836 1.63362 30.8678 1.63409 30.8521 1.63456C30.8364 1.63502 30.8207 1.63549 30.805 1.63595C30.7894 1.63642 30.7737 1.63688 30.7581 1.63735C30.7424 1.63781 30.7268 1.63827 30.7112 1.63873C30.6956 1.6392 30.6801 1.63966 30.6645 1.64012C30.649 1.64058 30.6334 1.64104 30.6179 1.6415C30.6024 1.64196 30.5869 1.64242 30.5714 1.64288C30.5559 1.64334 30.5405 1.6438 30.525 1.64426C30.5096 1.64472 30.4942 1.64517 30.4788 1.64563C30.4634 1.64609 30.448 1.64654 30.4326 1.647C30.4172 1.64745 30.4019 1.64791 30.3866 1.64836C30.3712 1.64882 30.3559 1.64927 30.3406 1.64973C30.3254 1.65018 30.3101 1.65063 30.2948 1.65109C30.2796 1.65154 30.2644 1.65199 30.2491 1.65244C30.2339 1.65289 30.2187 1.65334 30.2036 1.65379C30.1884 1.65424 30.1732 1.65469 30.1581 1.65514C30.143 1.65559 30.1279 1.65604 30.1128 1.65649C30.0977 1.65693 30.0826 1.65738 30.0675 1.65783C30.0525 1.65827 30.0374 1.65872 30.0224 1.65917C30.0074 1.65961 29.9924 1.66006 29.9774 1.6605C29.9624 1.66094 29.9475 1.66139 29.9325 1.66183C29.9176 1.66227 29.9027 1.66272 29.8878 1.66316C29.8729 1.6636 29.858 1.66404 29.8431 1.66448C29.8283 1.66492 29.8134 1.66537 29.7986 1.6658C29.7838 1.66624 29.7689 1.66668 29.7542 1.66712C29.7394 1.66756 29.7246 1.668 29.7099 1.66844C29.6951 1.66887 29.6804 1.66931 29.6657 1.66975C29.6509 1.67018 29.6363 1.67062 29.6216 1.67105C29.6069 1.67149 29.5923 1.67192 29.5776 1.67236C29.563 1.67279 29.5484 1.67323 29.5338 1.67366C29.5192 1.67409 29.5046 1.67452 29.49 1.67496C29.4755 1.67539 29.4609 1.67582 29.4464 1.67625C29.4319 1.67668 29.4174 1.67711 29.4029 1.67754C29.3884 1.67797 29.374 1.6784 29.3595 1.67883C29.3451 1.67926 29.3307 1.67968 29.3163 1.68011C29.3019 1.68054 29.2875 1.68096 29.2731 1.68139C29.2587 1.68182 29.2444 1.68224 29.2301 1.68267C29.2157 1.68309 29.2014 1.68352 29.1871 1.68394C29.1729 1.68436 29.1586 1.68479 29.1443 1.68521C29.1301 1.68563 29.1159 1.68606 29.1016 1.68648C29.0874 1.6869 29.0732 1.68732 29.0591 1.68774C29.0449 1.68816 29.0307 1.68858 29.0166 1.689C29.0025 1.68942 28.9884 1.68984 28.9743 1.69026C28.9602 1.69067 28.9461 1.69109 28.932 1.69151C28.918 1.69193 28.9039 1.69234 28.8899 1.69276C28.8759 1.69317 28.8619 1.69359 28.8479 1.694C28.8339 1.69442 28.82 1.69483 28.806 1.69525C28.7921 1.69566 28.7781 1.69607 28.7642 1.69648C28.7503 1.6969 28.7364 1.69731 28.7226 1.69772C28.7087 1.69813 28.6949 1.69854 28.681 1.69895C28.6672 1.69936 28.6534 1.69977 28.6396 1.70018C28.6258 1.70059 28.6121 1.701 28.5983 1.70141C28.5846 1.70181 28.5708 1.70222 28.5571 1.70263C28.5434 1.70304 28.5297 1.70344 28.516 1.70385C28.5024 1.70425 28.4887 1.70466 28.4751 1.70506C28.4614 1.70547 28.4478 1.70587 28.4342 1.70627C28.4206 1.70668 28.407 1.70708 28.3935 1.70748C28.3799 1.70788 28.3664 1.70829 28.3529 1.70869C28.3393 1.70909 28.3258 1.70949 28.3123 1.70989C28.2989 1.71029 28.2854 1.71069 28.272 1.71109C28.2585 1.71149 28.2451 1.71188 28.2317 1.71228C28.2183 1.71268 28.2049 1.71308 28.1915 1.71347C28.1782 1.71387 28.1648 1.71426 28.1515 1.71466C28.1382 1.71506 28.1248 1.71545 28.1116 1.71584C28.0983 1.71624 28.085 1.71663 28.0717 1.71703C28.0585 1.71742 28.0453 1.71781 28.032 1.7182C28.0188 1.71859 28.0056 1.71899 27.9925 1.71938C27.9793 1.71977 27.9661 1.72016 27.953 1.72055C27.9399 1.72094 27.9267 1.72133 27.9136 1.72171C27.9005 1.7221 27.8875 1.72249 27.8744 1.72288C27.8613 1.72327 27.8483 1.72365 27.8353 1.72404C27.8223 1.72442 27.8093 1.72481 27.7963 1.7252C27.7833 1.72558 27.7703 1.72597 27.7574 1.72635C27.7444 1.72673 27.7315 1.72712 27.7186 1.7275C27.7057 1.72788 27.6928 1.72826 27.6799 1.72865C27.6671 1.72903 27.6542 1.72941 27.6414 1.72979C27.6286 1.73017 27.6158 1.73055 27.603 1.73093C27.5902 1.73131 27.5774 1.73169 27.5646 1.73207C27.5519 1.73244 27.5392 1.73282 27.5264 1.7332C27.5137 1.73358 27.501 1.73395 27.4884 1.73433C27.4757 1.7347 27.463 1.73508 27.4504 1.73545C27.4378 1.73583 27.4251 1.7362 27.4125 1.73658C27.3999 1.73695 27.3874 1.73732 27.3748 1.7377C27.3622 1.73807 27.3497 1.73844 27.3372 1.73881C27.3247 1.73918 27.3122 1.73956 27.2997 1.73993C27.2872 1.7403 27.2747 1.74067 27.2623 1.74103C27.2498 1.7414 27.2374 1.74177 27.225 1.74214C27.2126 1.74251 27.2002 1.74288 27.1878 1.74324C27.1755 1.74361 27.1631 1.74398 27.1508 1.74434C27.1385 1.74471 27.1261 1.74507 27.1139 1.74544C27.1016 1.7458 27.0893 1.74617 27.077 1.74653C27.0648 1.74689 27.0525 1.74726 27.0403 1.74762C27.0281 1.74798 27.0159 1.74834 27.0037 1.7487C26.9916 1.74906 26.9794 1.74942 26.9673 1.74978C26.9551 1.75014 26.943 1.7505 26.9309 1.75086C26.9188 1.75122 26.9067 1.75158 26.8947 1.75194C26.8826 1.7523 26.8706 1.75265 26.8586 1.75301C26.8465 1.75337 26.8345 1.75372 26.8225 1.75408C26.8106 1.75443 26.7986 1.75479 26.7866 1.75514C26.7747 1.7555 26.7628 1.75585 26.7509 1.7562C26.739 1.75656 26.7271 1.75691 26.7152 1.75726C26.7033 1.75761 26.6915 1.75797 26.6796 1.75832C26.6678 1.75867 26.656 1.75902 26.6442 1.75937C26.6324 1.75972 26.6206 1.76007 26.6089 1.76041C26.5971 1.76076 26.5854 1.76111 26.5737 1.76146C26.562 1.76181 26.5503 1.76215 26.5386 1.7625C26.5269 1.76285 26.5153 1.76319 26.5036 1.76354C26.492 1.76388 26.4804 1.76423 26.4688 1.76457C26.4572 1.76491 26.4456 1.76526 26.434 1.7656C26.4225 1.76594 26.4109 1.76629 26.3994 1.76663C26.3879 1.76697 26.3764 1.76731 26.3649 1.76765C26.3534 1.76799 26.3419 1.76833 26.3305 1.76867C26.319 1.76901 26.3076 1.76935 26.2962 1.76969C26.2848 1.77003 26.2734 1.77037 26.262 1.7707C26.2507 1.77104 26.2393 1.77138 26.228 1.77171C26.2167 1.77205 26.2053 1.77238 26.1941 1.77272C26.1828 1.77305 26.1715 1.77339 26.1602 1.77372C26.149 1.77406 26.1377 1.77439 26.1265 1.77472C26.1153 1.77506 26.1041 1.77539 26.0929 1.77572C26.0818 1.77605 26.0706 1.77638 26.0595 1.77671C26.0483 1.77704 26.0372 1.77737 26.0261 1.7777C26.015 1.77803 26.0039 1.77836 25.9929 1.77869C25.9818 1.77902 25.9707 1.77934 25.9597 1.77967C25.9487 1.78 25.9377 1.78032 25.9267 1.78065C25.9157 1.78097 25.9048 1.7813 25.8938 1.78162C25.8829 1.78195 25.8719 1.78227 25.861 1.7826C25.8501 1.78292 25.8392 1.78324 25.8284 1.78357C25.8175 1.78389 25.8066 1.78421 25.7958 1.78453C25.785 1.78485 25.7742 1.78517 25.7634 1.78549C25.7526 1.78581 25.7418 1.78613 25.731 1.78645C25.7203 1.78677 25.7095 1.78709 25.6988 1.78741C25.6881 1.78773 25.6774 1.78804 25.6667 1.78836C25.6561 1.78868 25.6454 1.78899 25.6348 1.78931C25.6241 1.78962 25.6135 1.78994 25.6029 1.79025C25.5923 1.79057 25.5817 1.79088 25.5712 1.7912C25.5606 1.79151 25.55 1.79182 25.5395 1.79213C25.529 1.79245 25.5185 1.79276 25.508 1.79307C25.4975 1.79338 25.4871 1.79369 25.4766 1.794C25.4662 1.79431 25.4557 1.79462 25.4453 1.79493C25.4349 1.79524 25.4245 1.79554 25.4141 1.79585C25.4038 1.79616 25.3934 1.79647 25.3831 1.79677C25.3728 1.79708 25.3624 1.79739 25.3521 1.79769C25.3419 1.798 25.3316 1.7983 25.3213 1.79861C25.3111 1.79891 25.3008 1.79921 25.2906 1.79952C25.2804 1.79982 25.2702 1.80012 25.26 1.80042C25.2498 1.80073 25.2397 1.80103 25.2295 1.80133C25.2194 1.80163 25.2093 1.80193 25.1992 1.80223C25.1891 1.80253 25.179 1.80283 25.1689 1.80313C25.1589 1.80342 25.1488 1.80372 25.1388 1.80402C25.1288 1.80432 25.1188 1.80461 25.1088 1.80491C25.0988 1.80521 25.0888 1.8055 25.0789 1.8058C25.0689 1.80609 25.059 1.80639 25.0491 1.80668C25.0392 1.80697 25.0293 1.80727 25.0194 1.80756C25.0095 1.80785 24.9997 1.80815 24.9899 1.80844C24.98 1.80873 24.9702 1.80902 24.9604 1.80931C24.9506 1.8096 24.9408 1.80989 24.9311 1.81018C24.9213 1.81047 24.9116 1.81076 24.9019 1.81105C24.8922 1.81134 24.8825 1.81162 24.8728 1.81191C24.8631 1.8122 24.8534 1.81248 24.8438 1.81277C24.8342 1.81306 24.8245 1.81334 24.8149 1.81363C24.8053 1.81391 24.7957 1.81419 24.7862 1.81448C24.7766 1.81476 24.7671 1.81505 24.7575 1.81533C24.748 1.81561 24.7385 1.81589 24.729 1.81617C24.7195 1.81646 24.7101 1.81674 24.7006 1.81702C24.6912 1.8173 24.6817 1.81758 24.6723 1.81786C24.6629 1.81813 24.6535 1.81841 24.6442 1.81869C24.6348 1.81897 24.6254 1.81925 24.6161 1.81952C24.6068 1.8198 24.5974 1.82008 24.5881 1.82035C24.5789 1.82063 24.5696 1.8209 24.5603 1.82118C24.5511 1.82145 24.5418 1.82173 24.5326 1.822C24.5234 1.82227 24.5142 1.82255 24.505 1.82282C24.4958 1.82309 24.4867 1.82336 24.4775 1.82363C24.4684 1.8239 24.4593 1.82418 24.4502 1.82445C24.441 1.82472 24.432 1.82498 24.4229 1.82525C24.4138 1.82552 24.4048 1.82579 24.3958 1.82606C24.3867 1.82633 24.3777 1.82659 24.3687 1.82686C24.3598 1.82713 24.3508 1.82739 24.3418 1.82766C24.3329 1.82792 24.324 1.82819 24.315 1.82845C24.3061 1.82872 24.2972 1.82898 24.2884 1.82924C24.2795 1.82951 24.2706 1.82977 24.2618 1.83003C24.253 1.83029 24.2442 1.83056 24.2354 1.83082C24.2266 1.83108 24.2178 1.83134 24.209 1.8316C24.2003 1.83186 24.1915 1.83212 24.1828 1.83238C24.1741 1.83263 24.1654 1.83289 24.1567 1.83315C24.148 1.83341 24.1394 1.83366 24.1307 1.83392C24.1221 1.83418 24.1135 1.83443 24.1049 1.83469C24.0962 1.83494 24.0877 1.8352 24.0791 1.83545C24.0705 1.83571 24.062 1.83596 24.0535 1.83621C24.0449 1.83646 24.0364 1.83672 24.0279 1.83697C24.0194 1.83722 24.011 1.83747 24.0025 1.83772C23.9941 1.83797 23.9856 1.83822 23.9772 1.83847C23.9688 1.83872 23.9604 1.83897 23.9521 1.83922C23.9437 1.83947 23.9353 1.83972 23.927 1.83996C23.9187 1.84021 23.9103 1.84046 23.902 1.8407C23.8937 1.84095 23.8855 1.84119 23.8772 1.84144C23.8689 1.84168 23.8607 1.84193 23.8525 1.84217C23.8443 1.84242 23.8361 1.84266 23.8279 1.8429C23.8197 1.84315 23.8115 1.84339 23.8034 1.84363C23.7953 1.84387 23.7871 1.84411 23.779 1.84435C23.7709 1.84459 23.7628 1.84483 23.7548 1.84507C23.7467 1.84531 23.7387 1.84555 23.7306 1.84579C23.7226 1.84603 23.7146 1.84626 23.7066 1.8465C23.6986 1.84674 23.6906 1.84697 23.6827 1.84721C23.6747 1.84745 23.6668 1.84768 23.6589 1.84792C23.651 1.84815 23.6431 1.84838 23.6352 1.84862C23.6273 1.84885 23.6195 1.84908 23.6117 1.84932C23.6038 1.84955 23.596 1.84978 23.5882 1.85001C23.5804 1.85024 23.5726 1.85047 23.5649 1.8507C23.5571 1.85093 23.5494 1.85116 23.5416 1.85139C23.5339 1.85162 23.5262 1.85185 23.5185 1.85208C23.5109 1.85231 23.5032 1.85253 23.4956 1.85276C23.4879 1.85299 23.4803 1.85321 23.4727 1.85344C23.4651 1.85366 23.4575 1.85389 23.4499 1.85411C23.4424 1.85434 23.4348 1.85456 23.4273 1.85479C23.4197 1.85501 23.4122 1.85523 23.4047 1.85545C23.3973 1.85568 23.3898 1.8559 23.3823 1.85612C23.3749 1.85634 23.3674 1.85656 23.36 1.85678C23.3526 1.857 23.3452 1.85722 23.3379 1.85744C23.3305 1.85766 23.3231 1.85787 23.3158 1.85809C23.3084 1.85831 23.3011 1.85853 23.2938 1.85874C23.2865 1.85896 23.2793 1.85918 23.272 1.85939C23.2647 1.85961 23.2575 1.85982 23.2503 1.86004C23.2431 1.86025 23.2359 1.86046 23.2287 1.86068C23.2215 1.86089 23.2143 1.8611 23.2072 1.86131C23.2 1.86153 23.1929 1.86174 23.1858 1.86195C23.1787 1.86216 23.1716 1.86237 23.1645 1.86258C23.1575 1.86279 23.1504 1.863 23.1434 1.86321C23.1364 1.86341 23.1294 1.86362 23.1224 1.86383C23.1154 1.86404 23.1084 1.86424 23.1015 1.86445C23.0945 1.86466 23.0876 1.86486 23.0807 1.86507C23.0737 1.86527 23.0668 1.86548 23.06 1.86568C23.0531 1.86588 23.0462 1.86609 23.0394 1.86629C23.0326 1.86649 23.0257 1.8667 23.0189 1.8669C23.0121 1.8671 23.0054 1.8673 22.9986 1.8675C22.9918 1.8677 22.9851 1.8679 22.9784 1.8681C22.9717 1.8683 22.965 1.8685 22.9583 1.8687C22.9516 1.86889 22.9449 1.86909 22.9383 1.86929C22.9316 1.86949 22.925 1.86968 22.9184 1.86988C22.9118 1.87007 22.9052 1.87027 22.8986 1.87047C22.8921 1.87066 22.8855 1.87085 22.879 1.87105C22.8725 1.87124 22.8659 1.87143 22.8595 1.87163C22.853 1.87182 22.8465 1.87201 22.84 1.8722C22.8336 1.87239 22.8272 1.87259 22.8207 1.87278C22.8143 1.87297 22.8079 1.87316 22.8016 1.87334C22.7952 1.87353 22.7888 1.87372 22.7825 1.87391C22.7761 1.8741 22.7698 1.87429 22.7635 1.87447C22.7572 1.87466 22.7509 1.87485 22.7447 1.87503C22.7384 1.87522 22.7322 1.8754 22.726 1.87559C22.7197 1.87577 22.7135 1.87596 22.7073 1.87614C22.7012 1.87632 22.695 1.87651 22.6889 1.87669C22.6827 1.87687 22.6766 1.87705 22.6705 1.87723C22.6644 1.87741 22.6583 1.87759 22.6522 1.87777C22.6461 1.87795 22.6401 1.87813 22.6341 1.87831C22.628 1.87849 22.622 1.87867 22.616 1.87885C22.61 1.87903 22.6041 1.8792 22.5981 1.87938C22.5922 1.87956 22.5862 1.87973 22.5803 1.87991C22.5744 1.88008 22.5685 1.88026 22.5626 1.88043C22.5567 1.88061 22.5509 1.88078 22.545 1.88095C22.5392 1.88113 22.5334 1.8813 22.5276 1.88147C22.5218 1.88164 22.516 1.88181 22.5102 1.88199C22.5045 1.88216 22.4987 1.88233 22.493 1.8825C22.4873 1.88267 22.4816 1.88284 22.4759 1.883C22.4702 1.88317 22.4645 1.88334 22.4589 1.88351C22.4533 1.88368 22.4476 1.88384 22.442 1.88401C22.4364 1.88418 22.4308 1.88434 22.4253 1.88451C22.4197 1.88467 22.4141 1.88484 22.4086 1.885C22.4031 1.88516 22.3976 1.88533 22.3921 1.88549C22.3866 1.88565 22.3811 1.88582 22.3756 1.88598C22.3702 1.88614 22.3648 1.8863 22.3593 1.88646C22.3539 1.88662 22.3485 1.88678 22.3432 1.88694C22.3378 1.8871 22.3324 1.88726 22.3271 1.88742C22.3217 1.88758 22.3164 1.88773 22.3111 1.88789C22.3058 1.88805 22.3005 1.88821 22.2953 1.88836C22.29 1.88852 22.2848 1.88867 22.2795 1.88883C22.2743 1.88898 22.2691 1.88914 22.2639 1.88929C22.2587 1.88945 22.2536 1.8896 22.2484 1.88975C22.2433 1.8899 22.2382 1.89006 22.233 1.89021C22.2279 1.89036 22.2228 1.89051 22.2178 1.89066C22.2127 1.89081 22.2077 1.89096 22.2026 1.89111C22.1976 1.89126 22.1926 1.89141 22.1876 1.89156C22.1826 1.8917 22.1776 1.89185 22.1727 1.892C22.1677 1.89215 22.1628 1.89229 22.1579 1.89244C22.1529 1.89258 22.148 1.89273 22.1432 1.89287C22.1383 1.89302 22.1334 1.89316 22.1286 1.89331C22.1237 1.89345 22.1189 1.89359 22.1141 1.89373C22.1093 1.89388 22.1045 1.89402 22.0998 1.89416C22.095 1.8943 22.0903 1.89444 22.0855 1.89458C22.0808 1.89472 22.0761 1.89486 22.0714 1.895C22.0667 1.89514 22.0621 1.89528 22.0574 1.89542C22.0528 1.89555 22.0482 1.89569 22.0435 1.89583C22.0389 1.89597 22.0343 1.8961 22.0298 1.89624C22.0252 1.89637 22.0206 1.89651 22.0161 1.89664C22.0116 1.89678 22.0071 1.89691 22.0026 1.89704C21.9981 1.89718 21.9936 1.89731 21.9892 1.89744C21.9847 1.89757 21.9803 1.89771 21.9758 1.89784C21.9714 1.89797 21.967 1.8981 21.9626 1.89823C21.9583 1.89836 21.9539 1.89849 21.9496 1.89862C21.9452 1.89874 21.9409 1.89887 21.9366 1.899C21.9323 1.89913 21.928 1.89925 21.9238 1.89938C21.9195 1.89951 21.9152 1.89963 21.911 1.89976C21.9068 1.89988 21.9026 1.90001 21.8984 1.90013C21.8942 1.90026 21.89 1.90038 21.8859 1.9005C21.8818 1.90063 21.8776 1.90075 21.8735 1.90087C21.8694 1.90099 21.8653 1.90111 21.8612 1.90124C21.8572 1.90136 21.8531 1.90148 21.8491 1.9016C21.845 1.90172 21.841 1.90183 21.837 1.90195C21.833 1.90207 21.8291 1.90219 21.8251 1.90231C21.8212 1.90242 21.8172 1.90254 21.8133 1.90266C21.8094 1.90277 21.8055 1.90289 21.8016 1.903C21.7977 1.90312 21.7939 1.90323 21.79 1.90335C21.7862 1.90346 21.7824 1.90358 21.7786 1.90369C21.7748 1.9038 21.771 1.90391 21.7672 1.90402C21.7634 1.90414 21.7597 1.90425 21.756 1.90436C21.7522 1.90447 21.7485 1.90458 21.7449 1.90469C21.7412 1.9048 21.7375 1.90491 21.7338 1.90501C21.7302 1.90512 21.7266 1.90523 21.723 1.90534C21.7193 1.90544 21.7158 1.90555 21.7122 1.90566C21.7086 1.90576 21.7051 1.90587 21.7015 1.90597C21.698 1.90608 21.6945 1.90618 21.691 1.90629C21.6875 1.90639 21.684 1.90649 21.6806 1.90659C21.6771 1.9067 21.6737 1.9068 21.6702 1.9069C21.6668 1.907 21.6634 1.9071 21.66 1.9072C21.6567 1.9073 21.6533 1.9074 21.65 1.9075C21.6466 1.9076 21.6433 1.9077 21.64 1.9078C21.6367 1.9079 21.6334 1.90799 21.6301 1.90809C21.6269 1.90819 21.6236 1.90828 21.6204 1.90838C21.6172 1.90847 21.614 1.90857 21.6108 1.90866C21.6076 1.90876 21.6044 1.90885 21.6013 1.90895C21.5981 1.90904 21.595 1.90913 21.5919 1.90923C21.5888 1.90932 21.5857 1.90941 21.5826 1.9095C21.5795 1.90959 21.5765 1.90968 21.5734 1.90977C21.5704 1.90986 21.5674 1.90995 21.5644 1.91004C21.5614 1.91013 21.5584 1.91022 21.5555 1.91031C21.5525 1.91039 21.5496 1.91048 21.5467 1.91057C21.5437 1.91065 21.5408 1.91074 21.538 1.91082C21.5351 1.91091 21.5322 1.911 21.5294 1.91108C21.5265 1.91116 21.5237 1.91125 21.5209 1.91133C21.5181 1.91141 21.5153 1.9115 21.5125 1.91158C21.5098 1.91166 21.507 1.91174 21.5043 1.91182C21.5016 1.9119 21.4989 1.91198 21.4962 1.91206C21.4935 1.91214 21.4908 1.91222 21.4882 1.9123C21.4855 1.91238 21.4829 1.91246 21.4803 1.91254C21.4777 1.91261 21.4751 1.91269 21.4725 1.91277C21.4699 1.91284 21.4674 1.91292 21.4648 1.91299C21.4623 1.91307 21.4598 1.91314 21.4573 1.91322C21.4548 1.91329 21.4523 1.91336 21.4499 1.91344C21.4474 1.91351 21.445 1.91358 21.4425 1.91365C21.4401 1.91373 21.4377 1.9138 21.4353 1.91387C21.433 1.91394 21.4306 1.91401 21.4282 1.91408C21.4259 1.91415 21.4236 1.91422 21.4213 1.91429C21.419 1.91435 21.4167 1.91442 21.4144 1.91449C21.4122 1.91456 21.4099 1.91462 21.4077 1.91469C21.4054 1.91475 21.4032 1.91482 21.4011 1.91489C21.3989 1.91495 21.3967 1.91501 21.3945 1.91508C21.3924 1.91514 21.3903 1.91521 21.3881 1.91527C21.386 1.91533 21.3839 1.91539 21.3819 1.91545C21.3798 1.91552 21.3777 1.91558 21.3757 1.91564C21.3737 1.9157 21.3716 1.91576 21.3697 1.91582C21.3677 1.91588 21.3657 1.91593 21.3637 1.91599C21.3618 1.91605 21.3598 1.91611 21.3579 1.91617C21.356 1.91622 21.3541 1.91628 21.3522 1.91633C21.3503 1.91639 21.3484 1.91645 21.3466 1.9165C21.3448 1.91655 21.3429 1.91661 21.3411 1.91666C21.3393 1.91672 21.3375 1.91677 21.3358 1.91682C21.334 1.91687 21.3323 1.91693 21.3305 1.91698C21.3288 1.91703 21.3271 1.91708 21.3254 1.91713C21.3237 1.91718 21.322 1.91723 21.3204 1.91728C21.3187 1.91733 21.3171 1.91738 21.3155 1.91742C21.3139 1.91747 21.3123 1.91752 21.3107 1.91756C21.3091 1.91761 21.3076 1.91766 21.306 1.9177C21.3045 1.91775 21.303 1.91779 21.3015 1.91784C21.3 1.91788 21.2985 1.91793 21.2971 1.91797C21.2956 1.91801 21.2942 1.91806 21.2927 1.9181C21.2913 1.91814 21.2899 1.91818 21.2885 1.91822C21.2871 1.91826 21.2858 1.9183 21.2844 1.91834C21.2831 1.91838 21.2818 1.91842 21.2805 1.91846C21.2792 1.9185 21.2779 1.91854 21.2766 1.91858C21.2753 1.91861 21.2741 1.91865 21.2729 1.91869C21.2716 1.91872 21.2704 1.91876 21.2692 1.9188C21.268 1.91883 21.2669 1.91887 21.2657 1.9189C21.2646 1.91893 21.2634 1.91897 21.2623 1.919C21.2612 1.91903 21.2601 1.91907 21.259 1.9191C21.2579 1.91913 21.2569 1.91916 21.2559 1.91919C21.2548 1.91922 21.2538 1.91925 21.2528 1.91928C21.2518 1.91931 21.2508 1.91934 21.2499 1.91937C21.2489 1.9194 21.248 1.91943 21.247 1.91945C21.2461 1.91948 21.2452 1.91951 21.2443 1.91953C21.2434 1.91956 21.2426 1.91959 21.2417 1.91961C21.2409 1.91964 21.2401 1.91966 21.2393 1.91968C21.2385 1.91971 21.2377 1.91973 21.2369 1.91975C21.2361 1.91978 21.2354 1.9198 21.2347 1.91982C21.2339 1.91984 21.2332 1.91986 21.2325 1.91988C21.2318 1.9199 21.2312 1.91992 21.2305 1.91994C21.2299 1.91996 21.2292 1.91998 21.2286 1.92C21.228 1.92002 21.2274 1.92004 21.2268 1.92005C21.2262 1.92007 21.2257 1.92009 21.2251 1.9201C21.2246 1.92012 21.2241 1.92013 21.2236 1.92015C21.2231 1.92016 21.2226 1.92018 21.2222 1.92019C21.2217 1.92021 21.2212 1.92022 21.2208 1.92023C21.2204 1.92024 21.22 1.92026 21.2196 1.92027C21.2192 1.92028 21.2189 1.92029 21.2185 1.9203C21.2182 1.92031 21.2178 1.92032 21.2175 1.92033C21.2172 1.92034 21.2169 1.92035 21.2167 1.92035C21.2164 1.92036 21.2162 1.92037 21.2159 1.92038C21.2157 1.92038 21.2155 1.92039 21.2153 1.9204C21.2151 1.9204 21.2149 1.92041 21.2148 1.92041C21.2146 1.92041 21.2145 1.92042 21.2144 1.92042C21.2143 1.92043 21.2142 1.92043 21.2141 1.92043C21.214 1.92043 21.2139 1.92043 21.2139 1.92044C21.2139 1.92044 21.2139 1.92044 21.2435 2.92ZM36.3475 3.472C36.4916 3.472 36.59 3.48327 36.6519 3.49587C36.715 3.50874 36.7183 3.51854 36.69 3.50128C36.6552 3.47996 36.5954 3.4309 36.5496 3.34685C36.5048 3.26472 36.4995 3.19734 36.4995 3.176H38.4995C38.4995 2.61116 38.2374 2.10299 37.733 1.79472C37.3086 1.53542 36.8008 1.472 36.3475 1.472V3.472ZM36.4995 3.176C36.4995 3.12068 36.5051 3.07795 36.5015 3.1145C36.5002 3.1271 36.4979 3.14867 36.4941 3.18138C36.4866 3.24598 36.4751 3.34095 36.4592 3.46796C36.4276 3.72126 36.3798 4.09247 36.3159 4.58266L38.2991 4.84134C38.3632 4.35019 38.4114 3.97474 38.4438 3.71603C38.4599 3.58704 38.4724 3.48468 38.4809 3.41062C38.4845 3.37982 38.4995 3.26064 38.4995 3.176H36.4995ZM36.319 4.56097C35.8454 7.66075 35.5219 10.6567 35.3493 13.5484L37.3457 13.6676C37.5144 10.842 37.8309 7.90724 38.296 4.86302L36.319 4.56097ZM35.9003 12.7136C35.4819 12.9228 35.1672 12.992 34.9395 12.992V14.992C35.5651 14.992 36.1891 14.8052 36.7947 14.5024L35.9003 12.7136ZM34.9395 12.992C34.7088 12.992 34.5422 12.9424 34.4116 12.8678L33.4194 14.6042C33.8861 14.871 34.4022 14.992 34.9395 14.992V12.992ZM34.9068 13.6046C34.4382 10.0689 34.026 7.59729 33.6657 6.24633L31.7333 6.76166C32.0557 7.97071 32.4541 10.3204 32.9242 13.8674L34.9068 13.6046ZM32.9244 5.52961C28.983 4.62005 25.3225 4.16 21.9475 4.16V6.16C25.1432 6.16 28.6507 6.59594 32.4746 7.47839L32.9244 5.52961ZM21.9475 4.16C18.7024 4.16 16.3243 4.2447 14.8512 4.42326L15.0918 6.40873C16.4347 6.24596 18.7073 6.16 21.9475 6.16V4.16ZM14.0039 5.16357C13.7159 6.26754 13.5234 8.44773 13.3963 11.5835C13.2675 14.7603 13.2035 19.021 13.2035 24.36H15.2035C15.2035 19.0324 15.2675 14.8023 15.3947 11.6645C15.5236 8.4856 15.7151 6.52712 15.9391 5.66842L14.0039 5.16357ZM14.0391 25.3464C15.1543 25.5323 17.0435 25.616 19.6435 25.616V23.616C17.0381 23.616 15.3007 23.5291 14.3679 23.3736L14.0391 25.3464ZM19.6435 25.616C22.2632 25.616 24.4139 25.5303 26.0842 25.3545L25.8748 23.3655C24.3024 23.531 22.2291 23.616 19.6435 23.616V25.616ZM26.0842 25.3545C27.7483 25.1793 29.128 24.8166 30.0355 24.136L28.8355 22.536C28.3777 22.8794 27.4533 23.1993 25.8748 23.3655L26.0842 25.3545ZM30.043 24.1304C31.0833 23.3348 31.6282 21.9194 31.8953 20.228L29.9197 19.916C29.6748 21.4673 29.2384 22.2279 28.8281 22.5416L30.043 24.1304ZM30.9075 21.072C31.6035 21.072 32.0747 21.2012 32.3876 21.3838L33.3954 19.6562C32.6843 19.2414 31.8328 19.072 30.9075 19.072V21.072ZM31.9065 20.3472C31.4781 22.7894 31.2515 24.6739 31.2515 25.96H33.2515C33.2515 24.8567 33.4516 23.1146 33.8765 20.6928L31.9065 20.3472ZM143.127 49.256L143.099 50.2556L143.113 50.256H143.127V49.256ZM133.655 49L133.682 48.0004L133.668 48H133.655V49ZM120.663 49.512L119.894 50.1522L120.242 50.5693L120.781 50.5049L120.663 49.512ZM120.343 48.488L119.349 48.3776L119.343 48.4326V48.488H120.343ZM120.407 47.912L120.21 46.9314L119.493 47.0748L119.413 47.8016L120.407 47.912ZM125.975 45.416L126.801 45.9783L126.809 45.9676L126.816 45.9568L125.975 45.416ZM126.679 44.008L127.649 44.2505L127.652 44.2378L127.655 44.2249L126.679 44.008ZM127.127 39.592L126.131 39.4925L126.131 39.5007L126.13 39.509L127.127 39.592ZM127.575 26.472L128.575 26.4789V26.472H127.575ZM126.487 5.032L126.819 4.08901L126.74 4.06089L126.656 4.04654L126.487 5.032ZM122.071 4.712L121.151 5.10592L121.411 5.712H122.071V4.712ZM122.071 2.728L122.097 1.72836L121.461 1.71131L121.176 2.28079L122.071 2.728ZM129.239 2.92L129.212 3.91964L129.225 3.92H129.239V2.92ZM135.383 2.92V3.92H135.399L135.416 3.91945L135.383 2.92ZM143.127 2.664V1.664H143.11L143.093 1.66454L143.127 2.664ZM161.367 9.128L160.649 9.8244L160.656 9.83154L161.367 9.128ZM160.791 42.536L160.093 41.819L160.093 41.819L160.791 42.536ZM133.975 5.416L133.828 4.42679L133.182 4.52254L133.01 5.15288L133.975 5.416ZM133.463 45.608L132.471 45.7402L132.561 46.4109L133.217 46.5773L133.463 45.608ZM156.247 41.576L155.495 40.9168L155.494 40.9175L156.247 41.576ZM155.799 11.88L156.578 11.2533L156.572 11.2465L156.567 11.2398L155.799 11.88ZM148.823 7.016L148.43 7.93584L148.438 7.9393L148.446 7.94261L148.823 7.016ZM143.154 48.2564L133.682 48.0004L133.627 49.9996L143.099 50.2556L143.154 48.2564ZM133.655 48C127.843 48 123.464 48.1704 120.544 48.5191L120.781 50.5049C123.578 50.1709 127.86 50 133.655 50V48ZM121.431 48.8718C121.405 48.841 121.343 48.7477 121.343 48.488H119.343C119.343 49.0817 119.493 49.671 119.894 50.1522L121.431 48.8718ZM121.336 48.5984L121.4 48.0224L119.413 47.8016L119.349 48.3776L121.336 48.5984ZM120.603 48.8926C122.137 48.5857 123.427 48.2102 124.448 47.7525C125.456 47.3006 126.291 46.7293 126.801 45.9783L125.148 44.8537C124.933 45.1694 124.477 45.5474 123.629 45.9275C122.794 46.3018 121.663 46.6409 120.21 46.9314L120.603 48.8926ZM126.816 45.9568C127.211 45.3414 127.522 44.7581 127.649 44.2505L125.708 43.7655C125.665 43.9406 125.506 44.296 125.133 44.8752L126.816 45.9568ZM127.655 44.2249C127.713 43.9631 127.777 43.4335 127.849 42.7169C127.925 41.9722 128.016 40.9574 128.123 39.675L126.13 39.509C126.023 40.7866 125.933 41.7878 125.86 42.5151C125.783 43.2705 125.729 43.6689 125.702 43.7911L127.655 44.2249ZM128.122 39.6915C128.383 37.0805 128.532 32.6657 128.574 26.4789L126.575 26.4651C126.532 32.6517 126.382 36.9835 126.131 39.4925L128.122 39.6915ZM128.575 26.472V19.048H126.575V26.472H128.575ZM128.575 19.048C128.575 14.4973 128.484 11.0262 128.3 8.6506C128.208 7.4683 128.09 6.52124 127.939 5.83641C127.864 5.49823 127.772 5.17811 127.648 4.91211C127.55 4.70267 127.317 4.26454 126.819 4.08901L126.154 5.97499C125.838 5.86345 125.774 5.62733 125.835 5.75788C125.87 5.83189 125.925 5.98976 125.986 6.26758C126.107 6.81475 126.216 7.65169 126.305 8.80539C126.484 11.1018 126.575 14.5107 126.575 19.048H128.575ZM126.656 4.04654C125.347 3.82079 123.815 3.712 122.071 3.712V5.712C123.739 5.712 125.151 5.81654 126.317 6.01746L126.656 4.04654ZM122.99 4.31808C122.924 4.16439 122.879 3.96081 122.879 3.688H120.879C120.879 4.18318 120.961 4.66227 121.151 5.10592L122.99 4.31808ZM122.879 3.688C122.879 3.40865 122.926 3.25325 122.965 3.17521L121.176 2.28079C120.959 2.71474 120.879 3.19935 120.879 3.688H122.879ZM122.044 3.72764L129.212 3.91964L129.265 1.92036L122.097 1.72836L122.044 3.72764ZM129.239 3.92H135.383V1.92H129.239V3.92ZM135.416 3.91945L143.16 3.66345L143.093 1.66454L135.349 1.92054L135.416 3.91945ZM143.127 3.664C150.927 3.664 156.712 5.76671 160.649 9.82437L162.084 8.43163C157.659 3.87062 151.283 1.664 143.127 1.664V3.664ZM160.656 9.83154C164.67 13.8861 166.703 19.1462 166.703 25.704H168.703C168.703 18.6938 166.511 12.9033 162.077 8.42445L160.656 9.83154ZM166.703 25.704C166.703 32.19 164.497 37.5373 160.093 41.819L161.488 43.253C166.3 38.5747 168.703 32.7007 168.703 25.704H166.703ZM160.093 41.819C155.694 46.0959 150.067 48.256 143.127 48.256V50.256C150.522 50.256 156.671 47.9361 161.488 43.253L160.093 41.819ZM138.775 4.16C136.708 4.16 135.052 4.24552 133.828 4.42679L134.121 6.4052C135.201 6.24514 136.745 6.16 138.775 6.16V4.16ZM133.01 5.15288C132.725 6.1966 132.529 7.78733 132.4 9.86626C132.271 11.964 132.207 14.6212 132.207 17.832H134.207C134.207 14.6428 134.27 12.0307 134.397 9.98974C134.524 7.93 134.712 6.51273 134.939 5.67911L133.01 5.15288ZM132.207 17.832V37.992H134.207V17.832H132.207ZM132.207 37.992C132.207 41.7791 132.29 44.3837 132.471 45.7402L134.454 45.4758C134.293 44.2723 134.207 41.7995 134.207 37.992H132.207ZM133.217 46.5773C136.16 47.3241 139.23 47.696 142.423 47.696V45.696C139.386 45.696 136.482 45.3425 133.708 44.6387L133.217 46.5773ZM142.423 47.696C148.828 47.696 153.759 45.9372 156.999 42.2345L155.494 40.9175C152.76 44.0415 148.476 45.696 142.423 45.696V47.696ZM156.999 42.2352C160.241 38.5362 161.791 33.3395 161.791 26.792H159.791C159.791 33.0445 158.311 37.7038 155.495 40.9168L156.999 42.2352ZM161.791 26.792C161.791 20.7839 160.062 15.5864 156.578 11.2533L155.019 12.5066C158.191 16.4509 159.791 21.1947 159.791 26.792H161.791ZM156.567 11.2398C154.736 9.04345 152.266 7.33404 149.199 6.08939L148.446 7.94261C151.267 9.08729 153.447 10.6205 155.03 12.5202L156.567 11.2398ZM149.215 6.09616C146.167 4.7963 142.68 4.16 138.775 4.16V6.16C142.464 6.16 145.675 6.76102 148.43 7.93584L149.215 6.09616Z" fill="black"/>
<g clip-path="url(#clip0)">
<path d="M72.8772 44.9987L72.8772 44.9989C72.2372 47.079 70.3159 48.4985 68.1398 48.5C65.9773 48.4998 64.2242 46.7466 64.2242 44.5841V19.431C64.2242 15.9744 67.0261 13.1724 70.4828 13.1724H72.1724C75.6291 13.1724 78.431 15.9744 78.431 19.431C78.431 24.4213 77.6844 29.3833 76.2169 34.1531L72.8772 44.9987Z" stroke="black"/>
<path d="M65.7586 12.6724V13.8621H54.0862V12.6724C54.0862 11.0824 55.3755 9.79312 56.9655 9.79312H57.4794L57.4653 9.27941C57.3866 6.40881 58.2811 3.60116 59.9958 1.30868L62.0663 2.69741C61.334 4.82654 61.0451 7.08426 61.2192 9.33172L61.2549 9.79312H61.7177H62.8793C64.4694 9.79312 65.7586 11.0824 65.7586 12.6724Z" stroke="black"/>
<path d="M46.1228 44.9989L46.1228 44.9987L42.7831 34.1531C42.7831 34.153 42.7831 34.153 42.7831 34.1529C41.3156 29.3833 40.569 24.4212 40.569 19.431C40.569 15.9744 43.3709 13.1724 46.8276 13.1724H48.5172C51.9739 13.1724 54.7759 15.9744 54.7759 19.431V44.5841C54.7759 46.7466 53.0227 48.4998 50.8603 48.5C48.6841 48.4985 46.7628 47.079 46.1228 44.9989Z" stroke="black"/>
<path d="M51.6476 33.1107L51.6477 33.1107L51.6458 33.0979C51.0209 29.0363 50.7069 24.9328 50.7069 20.8233V17.7414C50.7069 15.2182 52.7527 13.1724 55.2759 13.1724H63.7242C66.2473 13.1724 68.2931 15.2182 68.2931 17.7414V20.8231C68.2931 20.8232 68.2931 20.8232 68.2931 20.8233C68.2919 24.9305 67.9774 29.0315 67.3521 33.0908L65.2631 44.506L65.2618 44.513L65.2608 44.52C64.9179 46.7491 63.0001 48.3948 60.7446 48.3944H60.7446H57.6185H57.6185C55.3651 48.3948 53.4483 46.7521 53.1029 44.5262L51.6476 33.1107Z" fill="white" stroke="black"/>
</g>
<g clip-path="url(#clip1)">
<path d="M114.877 44.9987L114.877 44.9989C114.237 47.079 112.316 48.4985 110.14 48.5C107.977 48.4998 106.224 46.7466 106.224 44.5841V19.431C106.224 15.9744 109.026 13.1724 112.483 13.1724H114.172C117.629 13.1724 120.431 15.9744 120.431 19.431C120.431 24.4213 119.684 29.3833 118.217 34.1531L114.877 44.9987Z" stroke="black"/>
<path d="M107.759 12.6724V13.8621H96.0862V12.6724C96.0862 11.0824 97.3755 9.79312 98.9655 9.79312H99.4794L99.4653 9.27941C99.3866 6.40881 100.281 3.60116 101.996 1.30868L104.066 2.69741C103.334 4.82654 103.045 7.08426 103.219 9.33172L103.255 9.79312H103.718H104.879C106.469 9.79312 107.759 11.0824 107.759 12.6724Z" stroke="black"/>
<path d="M88.1228 44.9989L88.1228 44.9987L84.7831 34.1531C84.7831 34.153 84.7831 34.153 84.7831 34.1529C83.3156 29.3833 82.569 24.4212 82.569 19.431C82.569 15.9744 85.3709 13.1724 88.8276 13.1724H90.5172C93.9739 13.1724 96.7759 15.9744 96.7759 19.431V44.5841C96.7759 46.7466 95.0227 48.4998 92.8603 48.5C90.6841 48.4985 88.7628 47.079 88.1228 44.9989Z" stroke="black"/>
<path d="M93.6475 33.1107L93.6477 33.1107L93.6457 33.0979C93.0209 29.0363 92.7069 24.9328 92.7069 20.8233V17.7414C92.7069 15.2182 94.7527 13.1724 97.2759 13.1724H105.724C108.247 13.1724 110.293 15.2182 110.293 17.7414V20.8231C110.293 20.8232 110.293 20.8232 110.293 20.8233C110.292 24.9305 109.977 29.0315 109.352 33.0908L107.263 44.506L107.262 44.513L107.261 44.52C106.918 46.7491 105 48.3948 102.745 48.3944H102.745H99.6185H99.6184C97.3651 48.3948 95.4483 46.7521 95.1029 44.5262L93.6475 33.1107Z" fill="white" stroke="black"/>
</g>
<defs>
<clipPath id="clip0">
<rect x="35" width="49" height="49" fill="white"/>
</clipPath>
<clipPath id="clip1">
<rect x="77" width="49" height="49" fill="white"/>
</clipPath>
</defs>
</svg>
