<svg width="119" height="35" viewBox="0 0 119 35" fill="none" xmlns="http://www.w3.org/2000/svg">
<path d="M18.3008 21.0254L14.7676 26.7559C13.9707 26.6152 13.2324 26.4922 12.5527 26.3867C11.8848 26.2812 11.2227 26.1816 10.5664 26.0879C9.92188 26.0059 9.25977 25.918 8.58008 25.8242C7.90039 25.7305 7.16797 25.6191 6.38281 25.4902C6.07812 25.4316 5.77344 25.3906 5.46875 25.3672C5.17578 25.332 4.87695 25.3145 4.57227 25.3145C3.92773 25.3145 3.30664 25.4023 2.70898 25.5781C2.12305 25.7539 1.56055 26.0293 1.02148 26.4043L0.476562 25.8242C0.722656 25.6133 0.933594 25.3613 1.10938 25.0684C1.28516 24.7754 1.43164 24.4648 1.54883 24.1367C1.67773 23.7969 1.77148 23.457 1.83008 23.1172C1.88867 22.7773 1.91797 22.4551 1.91797 22.1504V11.7793C1.91797 10.1387 2.20508 8.60938 2.7793 7.19141C3.35352 5.77344 4.14453 4.54297 5.15234 3.5C6.17188 2.44531 7.36719 1.61914 8.73828 1.02148C10.1211 0.412109 11.6152 0.107422 13.2207 0.107422C13.7363 0.107422 14.2344 0.166016 14.7148 0.283203C15.1953 0.400391 15.6172 0.587891 15.9805 0.845703C16.3555 1.10352 16.6543 1.4375 16.877 1.84766C17.0996 2.25781 17.2109 2.76172 17.2109 3.35938C17.2109 3.88672 17.1113 4.39648 16.9121 4.88867C16.7129 5.38086 16.4375 5.84961 16.0859 6.29492C15.7461 6.74023 15.3477 7.15625 14.8906 7.54297C14.4453 7.91797 13.9766 8.25781 13.4844 8.5625C12.9922 8.86719 12.4883 9.125 11.9727 9.33594C11.457 9.54688 10.9707 9.71094 10.5137 9.82812L10.2324 9.16016C10.6309 8.92578 11.041 8.65625 11.4629 8.35156C11.8965 8.04688 12.2891 7.71289 12.6406 7.34961C12.9922 6.97461 13.2793 6.57031 13.502 6.13672C13.7246 5.69141 13.8359 5.21094 13.8359 4.69531C13.8359 4.28516 13.7598 3.91016 13.6074 3.57031C13.4551 3.21875 13.2441 2.91992 12.9746 2.67383C12.7168 2.42773 12.4121 2.23438 12.0605 2.09375C11.7207 1.95312 11.3516 1.88281 10.9531 1.88281C10.0742 1.88281 9.30078 2.07031 8.63281 2.44531C7.96484 2.82031 7.40234 3.3125 6.94531 3.92188C6.48828 4.53125 6.14258 5.22266 5.9082 5.99609C5.67383 6.76953 5.55664 7.55469 5.55664 8.35156V19.6719C5.55664 20.1172 5.49219 20.5508 5.36328 20.9727C5.23438 21.3828 5.05859 21.7812 4.83594 22.168C4.625 22.543 4.37305 22.9004 4.08008 23.2402C3.78711 23.5801 3.47656 23.8906 3.14844 24.1719C3.52344 23.9023 3.88672 23.6562 4.23828 23.4336C4.58984 23.1992 4.94727 23 5.31055 22.8359C5.68555 22.6719 6.07227 22.5488 6.4707 22.4668C6.86914 22.373 7.30859 22.3262 7.78906 22.3262C8.375 22.3262 8.89648 22.3555 9.35352 22.4141C9.81055 22.4727 10.2559 22.5371 10.6895 22.6074C11.1348 22.666 11.5859 22.7246 12.043 22.7832C12.5 22.8418 13.0215 22.8711 13.6074 22.8711C14.0176 22.8711 14.4102 22.8125 14.7852 22.6953C15.1719 22.5664 15.5352 22.3965 15.875 22.1855C16.2148 21.9746 16.5312 21.7344 16.8242 21.4648C17.1289 21.1836 17.4043 20.8848 17.6504 20.5684L18.3008 21.0254ZM26.0703 26.4043C25.2031 26.4043 24.3887 26.252 23.627 25.9473C22.877 25.6309 22.2207 25.1973 21.6582 24.6465C21.1074 24.0957 20.668 23.4512 20.3398 22.7129C20.0234 21.9629 19.8652 21.1484 19.8652 20.2695C19.8652 19.2734 20.0293 18.3418 20.3574 17.4746C20.6855 16.5957 21.1367 15.8047 21.7109 15.1016C22.2969 14.3984 22.9824 13.7891 23.7676 13.2734C24.5645 12.7578 25.4258 12.3535 26.3516 12.0605L26.8613 12.6758C26.334 13.0625 25.8418 13.5078 25.3848 14.0117C24.9277 14.5039 24.5293 15.043 24.1895 15.6289C23.8496 16.2031 23.5801 16.8125 23.3809 17.457C23.1816 18.0898 23.082 18.7402 23.082 19.4082C23.082 19.9707 23.1641 20.5625 23.3281 21.1836C23.4922 21.8047 23.7383 22.373 24.0664 22.8887C24.3945 23.4043 24.8047 23.832 25.2969 24.1719C25.8008 24.5 26.3809 24.6641 27.0371 24.6641C27.623 24.6641 28.127 24.5586 28.5488 24.3477C28.9824 24.1367 29.3398 23.8496 29.6211 23.4863C29.9023 23.123 30.1133 22.7012 30.2539 22.2207C30.3945 21.7285 30.4648 21.2129 30.4648 20.6738C30.4648 20.041 30.3418 19.3965 30.0957 18.7402C29.8496 18.0723 29.5098 17.457 29.0762 16.8945C28.6543 16.332 28.1562 15.8633 27.582 15.4883C27.0078 15.1133 26.3926 14.8965 25.7363 14.8379C26.1465 14.3691 26.5977 13.9355 27.0898 13.5371C27.582 13.1387 28.0801 12.7578 28.584 12.3945C29.2637 12.6172 29.8613 12.9453 30.377 13.3789C30.9043 13.8125 31.3438 14.3105 31.6953 14.873C32.0586 15.4355 32.334 16.0508 32.5215 16.7188C32.709 17.375 32.8027 18.043 32.8027 18.7227C32.8027 19.6484 32.6387 20.5684 32.3105 21.4824C31.9941 22.3965 31.5371 23.2227 30.9395 23.9609C30.3535 24.6875 29.6445 25.2793 28.8125 25.7363C27.9922 26.1816 27.0781 26.4043 26.0703 26.4043ZM46.9355 24.6992C46.9355 25.3906 46.8418 26.0938 46.6543 26.8086C46.4668 27.5352 46.1973 28.2441 45.8457 28.9355C45.5059 29.627 45.0957 30.2773 44.6152 30.8867C44.1348 31.5078 43.5957 32.0469 42.998 32.5039C42.4121 32.9609 41.7734 33.3242 41.082 33.5938C40.4023 33.8633 39.6934 33.998 38.9551 33.998C38.4863 33.998 38.0352 33.9219 37.6016 33.7695C37.1797 33.6172 36.7988 33.377 36.459 33.0488L38.7793 30.8516C39.0254 31.1797 39.3125 31.4434 39.6406 31.6426C39.9688 31.8418 40.3379 31.9414 40.748 31.9414C41.3457 31.9414 41.832 31.8242 42.207 31.5898C42.582 31.3672 42.8809 31.0625 43.1035 30.6758C43.3262 30.3008 43.4844 29.8672 43.5781 29.375C43.6719 28.8945 43.7305 28.3965 43.7539 27.8809C43.7773 27.3652 43.7773 26.8613 43.7539 26.3691C43.7422 25.877 43.7363 25.4316 43.7363 25.0332V23.0117C43.5254 23.4102 43.2852 23.8086 43.0156 24.207C42.7578 24.6055 42.459 24.9629 42.1191 25.2793C41.791 25.5957 41.4219 25.8535 41.0117 26.0527C40.6016 26.252 40.1445 26.3516 39.6406 26.3516C38.8789 26.3516 38.2051 26.2051 37.6191 25.9121C37.0332 25.6191 36.541 25.2266 36.1426 24.7344C35.7441 24.2305 35.4453 23.6445 35.2461 22.9766C35.0469 22.3086 34.9473 21.5996 34.9473 20.8496C34.9473 20.1699 35.0293 19.4844 35.1934 18.793C35.3574 18.0898 35.5859 17.416 35.8789 16.7715C36.1836 16.127 36.5527 15.5234 36.9863 14.9609C37.4316 14.3984 37.9238 13.9121 38.4629 13.502C39.0137 13.0801 39.6172 12.752 40.2734 12.5176C40.9297 12.2715 41.627 12.1484 42.3652 12.1484C42.8105 12.1484 43.2559 12.2012 43.7012 12.3066C44.1465 12.4121 44.5684 12.5762 44.9668 12.7988C45.377 13.0098 45.7461 13.2734 46.0742 13.5898C46.4141 13.9062 46.6895 14.2754 46.9004 14.6973L44.2812 15.8047C44.1406 15.582 43.9766 15.3594 43.7891 15.1367C43.6133 14.9023 43.4141 14.6914 43.1914 14.5039C42.9805 14.3164 42.7461 14.1641 42.4883 14.0469C42.2422 13.9297 41.9844 13.8711 41.7148 13.8711C41.3164 13.8711 40.9414 13.9648 40.5898 14.1523C40.25 14.3398 39.9336 14.5859 39.6406 14.8906C39.3594 15.1953 39.1074 15.5469 38.8848 15.9453C38.6621 16.332 38.4746 16.7363 38.3223 17.1582C38.1699 17.5801 38.0527 17.9961 37.9707 18.4062C37.9004 18.8164 37.8652 19.1855 37.8652 19.5137C37.8652 19.959 37.9062 20.4629 37.9883 21.0254C38.082 21.5762 38.2402 22.0977 38.4629 22.5898C38.6855 23.082 38.9785 23.498 39.3418 23.8379C39.7051 24.1777 40.1621 24.3477 40.7129 24.3477C41.1465 24.3477 41.5215 24.2539 41.8379 24.0664C42.1543 23.8672 42.4238 23.6152 42.6465 23.3105C42.8691 22.9941 43.0508 22.6367 43.1914 22.2383C43.3438 21.8281 43.4551 21.4121 43.5254 20.9902C43.6074 20.5684 43.6602 20.1523 43.6836 19.7422C43.7188 19.3203 43.7363 18.9453 43.7363 18.6172V17.4043L46.9355 16.2793V24.6992ZM56.0586 26.4043C55.1914 26.4043 54.377 26.252 53.6152 25.9473C52.8652 25.6309 52.209 25.1973 51.6465 24.6465C51.0957 24.0957 50.6562 23.4512 50.3281 22.7129C50.0117 21.9629 49.8535 21.1484 49.8535 20.2695C49.8535 19.2734 50.0176 18.3418 50.3457 17.4746C50.6738 16.5957 51.125 15.8047 51.6992 15.1016C52.2852 14.3984 52.9707 13.7891 53.7559 13.2734C54.5527 12.7578 55.4141 12.3535 56.3398 12.0605L56.8496 12.6758C56.3223 13.0625 55.8301 13.5078 55.373 14.0117C54.916 14.5039 54.5176 15.043 54.1777 15.6289C53.8379 16.2031 53.5684 16.8125 53.3691 17.457C53.1699 18.0898 53.0703 18.7402 53.0703 19.4082C53.0703 19.9707 53.1523 20.5625 53.3164 21.1836C53.4805 21.8047 53.7266 22.373 54.0547 22.8887C54.3828 23.4043 54.793 23.832 55.2852 24.1719C55.7891 24.5 56.3691 24.6641 57.0254 24.6641C57.6113 24.6641 58.1152 24.5586 58.5371 24.3477C58.9707 24.1367 59.3281 23.8496 59.6094 23.4863C59.8906 23.123 60.1016 22.7012 60.2422 22.2207C60.3828 21.7285 60.4531 21.2129 60.4531 20.6738C60.4531 20.041 60.3301 19.3965 60.084 18.7402C59.8379 18.0723 59.498 17.457 59.0645 16.8945C58.6426 16.332 58.1445 15.8633 57.5703 15.4883C56.9961 15.1133 56.3809 14.8965 55.7246 14.8379C56.1348 14.3691 56.5859 13.9355 57.0781 13.5371C57.5703 13.1387 58.0684 12.7578 58.5723 12.3945C59.252 12.6172 59.8496 12.9453 60.3652 13.3789C60.8926 13.8125 61.332 14.3105 61.6836 14.873C62.0469 15.4355 62.3223 16.0508 62.5098 16.7188C62.6973 17.375 62.791 18.043 62.791 18.7227C62.791 19.6484 62.627 20.5684 62.2988 21.4824C61.9824 22.3965 61.5254 23.2227 60.9277 23.9609C60.3418 24.6875 59.6328 25.2793 58.8008 25.7363C57.9805 26.1816 57.0664 26.4043 56.0586 26.4043ZM72.1426 23.9434C71.873 24.5176 71.5625 24.957 71.2109 25.2617C70.8594 25.5664 70.5137 25.7891 70.1738 25.9297C69.7871 26.0938 69.3887 26.1875 68.9785 26.2109C68.4512 26.2109 68.0176 26.1289 67.6777 25.9648C67.3496 25.8008 67.0859 25.584 66.8867 25.3145C66.6992 25.0449 66.5645 24.7402 66.4824 24.4004C66.4121 24.0605 66.377 23.7148 66.377 23.3633V14.1523H64.5137L65.2695 12.3945H66.377V6.17188L69.5938 5.04688V12.3945H72.9336L72.2129 14.1523H69.5938V23.4512C69.5938 23.7324 69.6582 23.9551 69.7871 24.1191C69.916 24.2832 70.0801 24.3711 70.2793 24.3828C70.4785 24.3828 70.7012 24.3066 70.9473 24.1543C71.1934 24.002 71.4336 23.7559 71.668 23.416L72.1426 23.9434ZM86.7852 24.5586C86.7852 25.4023 86.6797 26.2227 86.4688 27.0195C86.2578 27.8281 85.9648 28.584 85.5898 29.2871C85.2266 30.002 84.793 30.6523 84.2891 31.2383C83.7852 31.8359 83.2344 32.3457 82.6367 32.7676C82.0508 33.2012 81.4297 33.5352 80.7734 33.7695C80.1172 34.0156 79.4551 34.1387 78.7871 34.1387C78.2832 34.1387 77.8086 34.0508 77.3633 33.875C76.918 33.7109 76.4961 33.4883 76.0977 33.207L78.0664 30.7109C78.2422 30.8516 78.4355 30.998 78.6465 31.1504C78.8691 31.3027 79.0977 31.4375 79.332 31.5547C79.5664 31.6836 79.8066 31.7832 80.0527 31.8535C80.3105 31.9355 80.5625 31.9766 80.8086 31.9766C81.2539 31.9766 81.6289 31.8418 81.9336 31.5723C82.25 31.3027 82.5078 30.957 82.707 30.5352C82.9062 30.1133 83.0645 29.6328 83.1816 29.0938C83.2988 28.5664 83.3809 28.0391 83.4277 27.5117C83.4863 26.9844 83.5215 26.4805 83.5332 26C83.5449 25.5312 83.5508 25.1445 83.5508 24.8398V17.7559C83.457 18.166 83.334 18.6641 83.1816 19.25C83.0293 19.8242 82.8359 20.4336 82.6016 21.0781C82.3789 21.7109 82.1211 22.3438 81.8281 22.9766C81.5352 23.5977 81.2012 24.1602 80.8262 24.6641C80.4629 25.168 80.0527 25.5781 79.5957 25.8945C79.1504 26.1992 78.6641 26.3516 78.1367 26.3516C77.5977 26.3516 77.1875 26.2344 76.9062 26C76.6367 25.7539 76.4375 25.4492 76.3086 25.0859C76.1914 24.7109 76.127 24.3008 76.1152 23.8555C76.1035 23.4102 76.0977 22.9824 76.0977 22.5723V14.9785C76.0977 14.7676 76.0391 14.5625 75.9219 14.3633C75.8047 14.1523 75.623 14.0469 75.377 14.0469C75.084 14.0469 74.8145 14.1582 74.5684 14.3809C74.334 14.5918 74.1465 14.8027 74.0059 15.0137L73.5312 14.4863C73.6719 14.1934 73.8477 13.9121 74.0586 13.6426C74.2812 13.3613 74.5273 13.1152 74.7969 12.9043C75.0781 12.6934 75.377 12.5293 75.6934 12.4121C76.0215 12.2832 76.3613 12.2188 76.7129 12.2188C77.627 12.2188 78.2832 12.4766 78.6816 12.9922C79.0918 13.4961 79.2969 14.1816 79.2969 15.0488V22.291C79.2969 22.3613 79.2969 22.4551 79.2969 22.5723C79.3086 22.6777 79.332 22.7832 79.3672 22.8887C79.4023 22.9824 79.4551 23.0703 79.5254 23.1523C79.5957 23.2227 79.6895 23.2578 79.8066 23.2578C80.0293 23.2578 80.2578 23.1289 80.4922 22.8711C80.7266 22.6133 80.9492 22.3145 81.1602 21.9746C81.3711 21.6348 81.5527 21.2949 81.7051 20.9551C81.8574 20.6152 81.9688 20.3633 82.0391 20.1992C82.25 19.6953 82.4375 19.1445 82.6016 18.5469C82.7656 17.9492 82.9062 17.3398 83.0234 16.7188C83.1523 16.0859 83.2578 15.4648 83.3398 14.8555C83.4336 14.2344 83.5039 13.6426 83.5508 13.0801L86.7852 11.9551V24.5586ZM97.4551 26.3164C97.0449 26.3164 96.6523 26.2578 96.2773 26.1406C95.9023 26.0352 95.5508 25.8535 95.2227 25.5957L96.5938 23.627C96.8164 23.9316 97.0742 24.1719 97.3672 24.3477C97.6719 24.5117 98.0059 24.5938 98.3691 24.5938C98.7441 24.5938 99.0664 24.5 99.3359 24.3125C99.6055 24.1133 99.8281 23.8555 100.004 23.5391C100.191 23.2227 100.344 22.8711 100.461 22.4844C100.578 22.0859 100.666 21.6875 100.725 21.2891C100.783 20.8906 100.824 20.5098 100.848 20.1465C100.871 19.7715 100.883 19.4551 100.883 19.1973C100.883 18.7051 100.812 18.1719 100.672 17.5977C100.543 17.0234 100.338 16.4844 100.057 15.9805C99.7871 15.4766 99.4355 15.0605 99.002 14.7324C98.5684 14.3926 98.0527 14.2227 97.4551 14.2227C97.0449 14.2227 96.6934 14.3281 96.4004 14.5391C96.1191 14.7383 95.8789 15.0078 95.6797 15.3477C95.4922 15.6758 95.3398 16.0566 95.2227 16.4902C95.1172 16.9121 95.0352 17.3398 94.9766 17.7734C94.9297 18.1953 94.9004 18.6113 94.8887 19.0215C94.877 19.4199 94.8711 19.7656 94.8711 20.0586V33.5586L91.6719 34.6836V14.9434C91.6719 14.709 91.6133 14.498 91.4961 14.3105C91.3789 14.1113 91.1973 14.0117 90.9512 14.0117C90.6582 14.0117 90.3887 14.123 90.1426 14.3457C89.9082 14.5566 89.7207 14.7676 89.5801 14.9785L89.1055 14.4512C89.2461 14.1582 89.4219 13.877 89.6328 13.6074C89.8555 13.3262 90.1016 13.0801 90.3711 12.8691C90.6523 12.6582 90.9512 12.4941 91.2676 12.377C91.5957 12.248 91.9355 12.1836 92.2871 12.1836C92.791 12.1836 93.207 12.2598 93.5352 12.4121C93.8633 12.5527 94.127 12.7578 94.3262 13.0273C94.5254 13.2969 94.666 13.6191 94.748 13.9941C94.8301 14.3691 94.8711 14.7852 94.8711 15.2422C95.0586 14.8789 95.2754 14.5156 95.5215 14.1523C95.7793 13.7773 96.0664 13.4492 96.3828 13.168C96.6992 12.875 97.0449 12.6406 97.4199 12.4648C97.8066 12.2773 98.2285 12.1836 98.6855 12.1836C99.4941 12.1836 100.209 12.3652 100.83 12.7285C101.463 13.0801 101.99 13.5488 102.412 14.1348C102.846 14.709 103.174 15.3594 103.396 16.0859C103.619 16.8125 103.73 17.5508 103.73 18.3008C103.73 19.2266 103.596 20.1641 103.326 21.1133C103.068 22.0625 102.676 22.9238 102.148 23.6973C101.633 24.4707 100.982 25.1035 100.197 25.5957C99.4121 26.0762 98.498 26.3164 97.4551 26.3164ZM118.531 22.5723C118.121 23.0996 117.67 23.5918 117.178 24.0488C116.697 24.5059 116.17 24.9043 115.596 25.2441C115.033 25.584 114.436 25.8535 113.803 26.0527C113.17 26.252 112.514 26.3516 111.834 26.3516C110.967 26.3516 110.17 26.1992 109.443 25.8945C108.717 25.5781 108.09 25.1504 107.562 24.6113C107.035 24.0605 106.625 23.416 106.332 22.6777C106.039 21.9277 105.893 21.125 105.893 20.2695C105.893 19.5664 105.992 18.875 106.191 18.1953C106.391 17.5156 106.672 16.877 107.035 16.2793C107.398 15.6816 107.826 15.1309 108.318 14.627C108.822 14.1113 109.373 13.6719 109.971 13.3086C110.568 12.9453 111.201 12.6641 111.869 12.4648C112.537 12.2539 113.223 12.1484 113.926 12.1484C114.418 12.1484 114.881 12.207 115.314 12.3242C115.76 12.4414 116.152 12.6289 116.492 12.8867C116.832 13.1328 117.102 13.4551 117.301 13.8535C117.5 14.2402 117.6 14.7031 117.6 15.2422C117.6 15.6875 117.465 16.1562 117.195 16.6484C116.938 17.1406 116.592 17.6328 116.158 18.125C115.736 18.6172 115.256 19.1035 114.717 19.584C114.178 20.0527 113.627 20.4922 113.064 20.9023C112.514 21.3008 111.98 21.6523 111.465 21.957C110.949 22.2617 110.498 22.4961 110.111 22.6602C110.545 23.1992 111.049 23.6387 111.623 23.9785C112.197 24.3184 112.807 24.4883 113.451 24.4883C113.861 24.4883 114.277 24.4121 114.699 24.2598C115.121 24.0957 115.525 23.8906 115.912 23.6445C116.311 23.3984 116.686 23.1289 117.037 22.8359C117.4 22.543 117.723 22.2676 118.004 22.0098L118.531 22.5723ZM114.295 15.8926C114.295 15.623 114.248 15.3652 114.154 15.1191C114.072 14.873 113.949 14.6621 113.785 14.4863C113.621 14.2988 113.422 14.1523 113.188 14.0469C112.965 13.9297 112.707 13.8711 112.414 13.8711C111.887 13.8711 111.4 14.0586 110.955 14.4336C110.51 14.7969 110.123 15.248 109.795 15.7871C109.479 16.3262 109.227 16.9004 109.039 17.5098C108.863 18.1074 108.775 18.6348 108.775 19.0918C108.775 19.5371 108.846 19.9941 108.986 20.4629C109.127 20.9316 109.32 21.3828 109.566 21.8164C110.035 21.5586 110.545 21.2012 111.096 20.7441C111.646 20.2871 112.156 19.7891 112.625 19.25C113.105 18.6992 113.504 18.1309 113.82 17.5449C114.137 16.959 114.295 16.4082 114.295 15.8926Z" fill="black"/>
</svg>
